<svg width="1024" height="1024" viewBox="0 0 1024 1024" fill="none" xmlns="http://www.w3.org/2000/svg">
<g clip-path="url(#clip0_7114_26366)">
<path d="M408 60.0444C472.355 22.8888 551.645 22.8888 616 60.0444L851.405 195.956C915.76 233.111 955.405 301.778 955.405 376.089V647.911C955.405 722.222 915.76 790.889 851.405 828.044L616 963.956C551.645 1001.11 472.355 1001.11 408 963.956L172.595 828.044C108.24 790.889 68.595 722.222 68.595 647.911V376.089C68.595 301.778 108.24 233.111 172.595 195.956L408 60.0444Z" fill="#DAE4DF"/>
<path d="M498.779 156.388C525.394 153.057 558.189 161.078 581.549 174.107C615.735 193.137 640.969 224.959 651.71 262.583C668.535 261.898 680.156 262.09 696.131 268.533C718.772 277.652 736.852 295.403 746.393 317.87C756.562 341.867 755.505 366.054 745.883 389.925C751.704 392.851 756.897 395.583 762.212 399.383C783.132 414.269 797.223 436.906 801.348 462.248C805.702 487.907 799.384 514.234 783.86 535.119C766.321 558.995 743.929 569.017 715.603 573.385C713.062 584.46 709.737 593.232 703.157 602.677C692.031 618.682 674.978 629.591 655.784 632.993C633.715 636.804 613.787 631.565 595.732 618.718C592.508 622.256 584.885 632.026 581.509 636.313C572.792 647.363 559.601 661.186 552.98 672.964C550.105 678.087 549.235 697.813 549.057 704.337C547.949 744.264 548.805 788.063 562.33 826.036C565.367 833.952 569.199 840.937 573.987 847.872C576.796 851.936 585.366 857.186 582.339 862.086C577.581 865.624 564.774 864.55 558.609 864.55L524.159 864.53L472.412 864.525C465.218 864.525 443.414 865.638 438.484 862.257C436.05 857.105 443.293 852.635 446.257 848.889C460.688 830.672 466.023 804.66 469.111 782.04C472.027 760.674 475.859 688.231 467.253 671.497C462.603 662.456 454.091 654.004 447.546 646.178C439.689 636.845 432.053 627.324 424.645 617.63C414.408 624.823 405.562 629.272 393.079 631.59C373.168 635.361 352.579 630.973 335.933 619.412C320.321 608.549 309.65 591.936 306.257 573.223C299.465 572.353 293.594 571.3 287.014 569.291C262.711 561.906 242.337 545.167 230.382 522.753C218.542 500.031 216.183 473.543 223.817 449.083C232.485 421.437 250.562 403.178 275.723 390.047C270.492 376.892 267.641 364.117 268.246 349.839C269.126 325.574 279.713 302.677 297.629 286.287C319.521 266.167 341.42 261.481 369.865 262.58C374.532 244.482 385.859 223.646 397.794 209.45C424.331 177.884 457.988 160.281 498.779 156.388ZM508.167 493.3C503.804 495.106 503.145 495.634 500.432 499.498C499.946 523.209 496.876 549.191 495.521 573.072C495.285 577.228 493.736 597.959 492.954 600.273C489.401 601.549 479.264 592.135 476.161 589.588C463.999 579.536 452.011 569.27 440.203 558.802C436.577 555.603 432.623 550.972 428.563 548.543C427.004 547.606 425.497 547.359 423.755 547.925C420.605 548.948 417.66 551.934 416.322 554.92C415.683 556.348 415.267 558.226 415.909 559.724C418.104 564.852 425.754 571.912 429.676 576.291C442.802 590.939 485.241 638.17 502.589 643.87C509.645 646.188 516.655 645.262 523.159 641.876L523.635 641.623C549.601 623.841 576.965 590.819 598.22 567.342C603.185 561.855 614.827 551.443 608.484 544.893C601.524 537.706 599.515 537.083 592.11 544.473C584.472 550.821 536.122 599.22 528.929 600.248C528.267 599.898 527.659 599.741 527.512 598.699C526.718 593.096 526.232 586.187 525.746 580.619C523.868 559.522 522.258 538.399 520.917 517.266C520.547 511.486 520.578 505.133 519.854 499.499C519.211 494.529 512.049 493.17 508.167 493.3Z" fill="#035F0D"/>
</g>
<defs>
<clipPath id="clip0_7114_26366">
<rect width="1024" height="1024" fill="white"/>
</clipPath>
</defs>
</svg>
