<svg width="1254" height="1254" viewBox="0 0 1254 1254" fill="none" xmlns="http://www.w3.org/2000/svg">
<g clip-path="url(#clip0_7114_26384)">
<rect width="1254" height="1254" fill="#082E1E"/>
<path d="M929.886 631.871C929.275 688.729 929.858 746.732 929.858 803.681L929.801 870.971C929.787 883.419 929.598 895.964 929.921 908.341C930.251 921.462 932.546 930.441 946.826 933.165C955.994 934.913 996.284 949.473 992.711 960.931C991.497 961.633 991.124 961.886 989.657 961.647C987.39 961.268 985.122 959.899 982.939 959.134C978.375 957.533 972.949 957.378 968.154 957.814C954.106 959.105 940.325 965.459 927.878 971.742C911.176 980.174 895.205 990.115 879.472 1000.21C869.124 1006.86 787.751 1064.4 781.411 1064.23C779.347 1064.18 778.989 1063.75 777.571 1062.42C776.947 1060.42 776.413 1059.41 778.266 1057.48C781.601 1054.01 786.003 1051.44 789.464 1047.91C802.824 1034.17 816.085 1018.76 819.89 999.466C823.773 979.745 812.526 961.513 792.209 958.389C780.773 956.627 767.251 959.148 756.321 962.826C704.454 980.258 660.64 1017.4 622.667 1055.66C612.67 1065.79 603.375 1076.28 593.616 1086.55C587.649 1092.84 581.352 1100.43 574.475 1105.46C572.293 1105.56 572.396 1105.44 570.406 1104.42C567.642 1099.3 574.057 1093.62 576.888 1089.24C616.096 1028.49 549.823 1017.4 508.479 1000.5C471.515 985.298 436.903 964.911 405.684 939.961C319.282 870.782 270.666 777.579 258.299 668.532C237.167 482.195 336.875 306.764 517.609 247.21C547.14 237.478 578.598 229.043 606.169 214.414C628.613 202.503 649.871 186.634 668.987 169.993C672.392 167.023 677.208 165.444 680.88 169.14C695.658 183.997 710.611 197.498 726.919 210.665L728.45 211.545C781.482 252.775 874.614 296.651 933.719 236.612C937.868 232.396 939.202 220.155 944.804 217.763C946.461 218.164 947.163 218.376 948.132 219.973C950.322 223.589 948.328 229.648 946.952 233.172C941.525 247.023 929.963 259.542 919.587 269.987C905.286 284.385 889.757 297.752 874.361 310.962C854.704 327.823 772.313 391.001 782.766 418.539C784.114 422.084 787.435 424.375 787.639 428.397C785.083 431.192 779.158 427.834 777.136 425.593C762.548 409.388 775.95 384.923 784.058 368.95C787.182 362.792 793.234 353.721 789.141 347.042C783.3 343.882 768.592 341.646 761.396 339.469C714.584 325.307 672.757 298.794 631.596 273.05C626.352 269.767 620.195 265.383 614.755 262.688C588.737 275.768 583.893 309.981 583.865 335.818C583.844 353.103 583.802 370.401 583.809 387.686V576.142L583.823 634.701C583.837 647.386 584.195 661.561 583.184 674.029C582.384 684.307 580.28 694.437 576.921 704.181C561.73 748.276 517.881 785.197 478.445 809.691C476.188 811.095 475.018 810.87 472.597 810.196C470.557 808.083 471.164 809.283 470.56 806.546C471.166 803.983 475.321 799.89 477.286 797.84C506.029 767.884 502.249 722.715 502.221 684.307L502.226 598.012L502.232 459.41C502.228 436.579 502.485 413.521 502.136 390.687C502.058 385.562 500.972 375.258 498.48 370.731C495.646 365.582 488.632 360.523 489.783 354.495C492.605 349.829 508.267 337.846 513.394 333.506C534.355 315.964 554.865 297.888 574.902 279.297C579.337 275.145 593.553 263.446 593.216 258.223C590.885 255.2 586.61 254.693 582.973 254.214C556.647 250.747 529.052 265.958 509.169 282.072C436.144 342.178 402.465 443.448 391.848 534.59C379.27 642.556 398.974 751.351 467.798 838.832C538.738 929.002 684.383 1006.06 792.202 929.634C815.32 913.248 812.68 884.717 812.68 859.437V805.478L812.645 714.515C812.638 698.74 812.996 681.014 812.533 665.401C797.095 659.707 781.812 653.613 766.69 647.12C733.715 633.17 704.11 619.115 669.156 636.14C655.803 642.648 645.995 650.082 638.132 662.55C637.22 663.99 635.395 664.004 633.927 664.046C631.231 662.649 632.2 663.631 630.761 661.16C629.968 648.271 663.631 618.343 673.536 609.553C700.347 585.754 727.411 561.326 755.885 539.587C757.577 538.294 760.189 537.935 762.218 537.79C762.632 537.76 763.046 537.741 763.46 537.731L765.314 538.139C772.124 540.135 788.277 547.456 795.445 550.367C841.976 569.26 894.131 594.804 944.151 572.793C957.047 567.153 968.877 559.344 979.134 549.704C981.731 547.218 983.851 544.413 987.312 544.161L988.695 545.359C990.598 550.424 984.841 560.174 982.244 564.706C968.013 589.538 951.08 612.537 929.886 631.871Z" fill="#EBE8DA"/>
<path d="M129.355 685.711C110.014 670.835 87.4661 655.875 68.867 640.381C9.91477 591.273 -58.9812 517.358 -54.2725 435.157C-52.892 411.056 -44.9586 388.403 -36.0631 366.092C-27.4842 344.573 -14.8061 321.301 -22.1248 297.382C-24.4233 289.871 -29.372 281.927 -36.603 278.396C-40.9486 276.226 -45.9956 275.941 -50.559 277.605C-60.1757 281.055 -65.0315 291.445 -60.9672 300.963C-60.4426 302.192 -60.3728 302.289 -60.1025 303.696L-61.1355 303.958C-64.1014 302.33 -66.5621 297 -67.4585 293.784C-68.9539 288.419 -67.0543 281.5 -64.3478 276.831C-60.8849 270.857 -55.4693 266.989 -48.8051 265.312C-42.1652 263.641 -35.4678 264.806 -29.6247 268.321C-23.9249 271.751 -19.5308 277.021 -16.7114 283.01C-1.96582 314.329 -32.4336 358.678 -30.9165 364.393C-29.1495 361.318 -27.3326 358.976 -25.2967 356.15C4.55401 314.716 55.9278 290.241 106.896 303.162C135.456 310.228 159.898 328.641 174.569 354.143C186.206 374.102 191.693 401.532 185.558 424.018L185.343 424.778C184.173 429.618 183.522 431.832 181.709 436.455C175.93 450.431 167.026 461.148 153.019 467.263C137.726 473.939 120.053 470.462 112.506 454.43C109.931 448.961 113.645 444.714 118.086 442.073C120.077 441.837 119.982 441.982 121.798 442.935L121.931 444.253C119.625 446.997 117.565 448.666 118.087 452.287C118.363 454.203 119.435 456.037 121.046 457.076C126.719 460.735 133.937 461.138 140.317 459.98C152.357 457.794 159.843 450.038 166.33 440.265C178.517 421.901 181.308 402.04 176.84 380.65C171.713 356.097 156.295 334.786 134.864 321.712C110.471 306.83 80.438 302.1 52.6373 308.75C18.0416 317.026 -8.85562 338.855 -26.9486 369.145C-46.4154 401.734 -51.6447 442.459 -42.6342 479.228C-34.9581 510.551 -17.398 540.048 1.80553 565.68C4.42413 569.174 18.5126 585.257 19.4049 586.836C21.2246 592.684 27.4496 597.065 32.4951 600.056C34.4517 600.084 33.8016 600.112 35.7449 599.508C53.5872 620.197 73.544 638.963 95.2897 655.496C123.296 676.964 154.191 696.705 181.059 719.599C179.472 716.447 164.761 701.956 161.446 698.362C135.561 670.596 107.572 633.15 119.849 592.993C127.256 568.762 155.814 550.777 179.875 564.434C187.537 568.782 195.203 579.247 192.078 588.851C190.566 593.506 183.433 600.365 177.832 597.879C176.426 595.605 176.475 596.651 176.638 594.559C179.152 591.919 184.076 587.243 183.699 583.375C182.362 569.672 170.608 563.657 158.28 564.771C148.39 565.713 139.313 570.654 133.152 578.447C123.57 590.332 120.063 605.686 122.12 620.71C127.875 662.727 161.01 693.174 189.458 721.607C219.668 751.801 245.645 786.208 258.792 827.312C266.162 849.651 269.154 873.205 267.603 896.674C265.169 930.87 251.997 967.32 230.891 994.355C230.427 994.945 229.954 995.521 229.47 996.097C236.164 991.358 242.505 986.731 249.622 982.702C293.022 958.137 343.87 957.007 390.971 970.325C394.946 971.448 399.292 972.768 403.313 973.709L398.874 974.228C393.81 972.15 381.221 969.777 375.618 968.949C340.051 963.662 305.053 966.112 271.647 980.167C256.072 986.823 241.435 995.486 228.108 1005.93C218.144 1013.61 209.691 1022.22 200.69 1031.04C197.871 1033.8 195.775 1035.97 192.09 1039.27C152.198 1075.03 109.37 1108.83 77.3322 1152.19C77.2733 1152.38 77.215 1152.58 77.156 1152.77C83.5811 1148.71 92.0841 1140.7 98.6601 1135.54C141.901 1101.61 220.138 1081.11 256.174 1137.44C266.267 1152.95 269.736 1171.86 265.811 1189.94C261.494 1209.21 249.013 1227.16 230.092 1234.29C215.985 1239.61 199.099 1239.16 189.475 1225.84C186.607 1221.87 186.769 1212.06 191.42 1209.16C194.381 1209.05 192.985 1208.77 195.725 1210.21C195.692 1214.33 187.702 1218.31 195.017 1225.22C208.157 1237.63 225.655 1230.23 235.938 1218.89C245.43 1208.23 250.337 1194.26 249.596 1180.01C247.056 1135.92 204.876 1113.29 164.582 1116.36C100.947 1121.21 62.2314 1169.92 28.8165 1218.75C20.5359 1230.84 11.2388 1242.02 2.71678 1253.53L0.824082 1254.04C8.53106 1246.33 32.4376 1207.78 38.9778 1197.5C56.3188 1170.24 70.7997 1149.95 92.0118 1125.34C106.885 1108.07 122.885 1091.81 139.904 1076.65C170.153 1049.36 199.733 1026.07 223.645 992.425C258.116 943.928 263.964 875.536 224.327 827.832C203.997 803.633 174.801 788.616 143.295 786.152C111.949 783.442 80.285 792.428 56.6277 812.394C21.0189 842.441 -0.291466 904.726 45.0686 935.988C47.7034 937.806 49.2984 941.331 52.3081 942.896C57.6386 945.662 67.3513 947.017 72.0992 942.608C73.6507 941.162 75.1889 939.702 76.7144 938.228C85.221 945.325 66.8002 960.896 56.4943 961.739C24.3655 964.378 5.25394 933.861 2.55601 905.442C-0.0787428 877.684 10.8639 851.245 28.1263 830.149C24.23 832.655 17.3164 839.682 14.1797 843.312C-10.1495 871.436 -26.0057 906.692 -23.9663 944.363C-22.4927 971.574 -10.6971 997.136 9.68942 1015.09C7.72722 1016.47 6.09919 1017.49 4.42553 1019.24C2.26676 1017.3 0.176802 1015.39 -1.83594 1013.3C-21.7577 992.579 -32.4975 964.708 -31.6319 935.974C-29.4675 854.355 57.2104 776.492 138.277 780.29C210.432 783.681 260.967 841.529 257.765 913.123L258.189 917.447L259.148 917.932C272.266 848.76 243.617 789.48 195.2 741.755C151.102 698.278 92.8199 667.795 29.8562 667.465C2.99057 668.385 -15.181 673.257 -35.6868 691.91C-57.9715 712.185 -62.7157 764.915 -23.2734 767.667C-19.6691 767.92 -15.9996 765.21 -13.5094 762.367L-12.6579 761.37L-11.9453 762.002C-10.8824 769.893 -23.5584 773.972 -29.3004 773.761C-64.071 773.494 -74.7368 726.058 -59.8744 700.356C-18.1148 628.144 70.2402 657.869 128.008 686.715L129.355 685.711Z" fill="#7F8260"/>
<path d="M257.76 913.122L258.184 917.447L259.143 917.931C258.72 923.182 256.996 927.984 255.164 932.863C256.143 926.299 257.008 919.714 257.76 913.122Z" fill="#394933"/>
<path d="M181.712 436.455C180.466 433.218 181.705 426.018 185.346 424.778C184.177 429.618 183.525 431.832 181.712 436.455Z" fill="#9E9B73"/>
<path d="M129.354 685.711C133.168 687.761 134.833 688 137.045 691.552C134.391 691.489 130.3 688.358 128.008 686.715L129.354 685.711Z" fill="#556244"/>
<path d="M11.9191 883.911C12.1298 894.4 12.4029 902.115 15.3353 912.4C20.946 932.071 34.6069 949.818 56.2058 952.009C57.7272 952.163 57.9995 952.016 59.3475 952.893C29.3171 952.893 12.3488 924.194 11.1483 896.983C10.9517 892.539 10.7594 888.257 11.9191 883.911Z" fill="#394933"/>
<path d="M225.336 1121.54C234.254 1123.98 243.788 1135.53 248.571 1143C254.718 1152.6 257.589 1161.73 258.412 1172.97C257.966 1172.78 257.52 1172.59 257.074 1172.4C255.958 1167.44 254.763 1162.47 253.43 1157.57C251.36 1149.96 246.722 1142.61 241.809 1136.46C237.206 1130.7 230.948 1126.33 225.336 1121.54Z" fill="#394933"/>
<path d="M1131.47 819.149C1134.21 817.281 1132.87 817.443 1135.5 817.857C1140.27 820.637 1151.72 821.873 1157.44 823.972C1163.74 825.973 1169.86 828.338 1175.96 830.957C1224.62 851.878 1255.71 893.516 1272.11 942.841C1300.41 1027.89 1274.95 1141.57 1180.76 1171.56C1133.73 1186.53 1094.39 1168.3 1057.03 1140.1C1084.62 1174.17 1123.03 1224.12 1169.05 1231.32C1181.57 1233.27 1193.5 1229.27 1197.52 1216.19L1198.4 1215.51C1203.6 1221.47 1195.58 1231.84 1190.71 1235.47C1181.14 1242.62 1169.42 1244.25 1157.86 1242.48C1131.37 1238.73 1108.49 1216.1 1093.75 1194.89C1071.42 1162.73 1044.88 1126.91 1012.33 1103.78C1025.85 1118.28 1034.2 1131.23 1038.69 1150.88C1046.11 1183.36 1033.4 1218 1009.22 1240.42C989.445 1258.48 963.231 1267.82 936.49 1266.35C897.963 1264.56 861.822 1236.52 863.106 1195.67C863.598 1180.33 873.7 1160.56 891.279 1160.43C898.278 1160.37 907.265 1168.74 899.956 1175.24C899.809 1175.36 898.25 1175.95 898.005 1176.04C893.687 1174.04 893.947 1166.69 886.316 1170.08C866.876 1178.69 867.192 1205.49 874.416 1221.68C890.865 1258.5 935.627 1269.53 970.75 1254.27C991.916 1244.98 1008.55 1227.68 1017 1206.16C1026.15 1183.08 1025.59 1157.27 1015.42 1134.6C992.036 1082.3 931.548 1064.22 878.671 1073.71C817.846 1084.65 778.363 1131.63 743.114 1178C740.531 1181.41 719.399 1204.36 718.88 1206.14C716.247 1208.86 712.765 1209.51 711.045 1212.31C711.073 1214.19 710.743 1213.43 711.578 1214.89C707.647 1218.8 683.679 1231.63 677.831 1234.33C646.563 1248.73 608.54 1252.96 575.997 1240.52C534.328 1225.05 514.514 1185.6 505.814 1144.45C503.973 1135.75 499.825 1114.98 496.112 1107.24C499.269 1126.66 499.201 1141.42 494.994 1160.66C483.987 1210.98 433.705 1249.91 381.34 1236.95C360.617 1231.74 342.774 1218.59 331.659 1200.35C320.9 1182.8 317.712 1161.65 322.82 1141.72C328.273 1120.83 346.011 1098.52 370.322 1103.32C385.775 1106.37 383.811 1128.47 372.119 1122.86C369.435 1119.65 372.918 1113.4 367.41 1111.34C359.982 1108.55 351.782 1111.32 345.83 1116.16C324.281 1133.69 322.777 1166.5 333.71 1190.02C342.126 1208.09 357.451 1222.01 376.238 1228.65C396.645 1235.96 420.834 1233.96 440.228 1224.51C462.071 1213.71 478.752 1194.7 486.628 1171.64L484.88 1170.89C475.558 1186.73 463.869 1195.76 446.9 1202.03L446.433 1200.61C475.485 1190.67 492.368 1153.61 491.437 1124.49C488.374 1028.52 388.251 976.089 301.314 996.779C277.109 1002.54 255.083 1009.98 233.6 1022.84L231.984 1022C236.131 1019.96 240.405 1017.38 244.493 1015.14C299.775 984.795 367.276 976.876 424.061 1008.8C439.988 1017.72 454.159 1029.47 465.883 1043.46C477.385 1057.12 486.438 1072.67 492.644 1089.41C509.304 1134.22 508.792 1182.16 547.283 1217.5C575.723 1243.62 618.292 1248.53 646.443 1218.3C660.33 1203.38 668.192 1172.48 650.038 1155.99C632.283 1143.97 614.634 1152.74 619.099 1176L618.376 1176.41C608.393 1171.33 609.565 1158.15 615.076 1150.18C626.077 1133.69 650.494 1134.39 662.745 1148.91C693.129 1184.93 651.624 1238.32 612.296 1242.89C664.528 1246.01 706.39 1216.33 737.687 1177.41C763.972 1144.73 784.878 1114.17 821.061 1091C847.788 1073.61 878.944 1064.25 910.824 1064.04C1021.79 1064.02 1038.53 1151.13 1123.12 1169.26C1152.66 1175.59 1184 1170.7 1209.38 1154.06C1244.76 1130.85 1266.01 1093.87 1274.45 1052.93C1285.44 997.747 1274.39 940.461 1243.67 893.319C1224.8 864.873 1197.27 841.024 1165.33 828.254C1154.28 823.831 1143.07 821.494 1131.47 819.149Z" fill="#7F8260"/>
<path d="M484.875 1170.89C486.858 1165.74 489.562 1157.97 491.742 1153.19C492.262 1156.95 488.343 1168.15 486.622 1171.63L484.875 1170.89Z" fill="#394933"/>
<path d="M1025.62 1138L1026.25 1137.96C1027.91 1140.19 1028.84 1145.34 1029.58 1148.11C1033.98 1164.61 1032.9 1179.38 1028.13 1195.63L1027.86 1195.57C1027.1 1194.32 1028.59 1188.69 1029.01 1186.95C1033.07 1169.75 1029.96 1154.7 1025.62 1138Z" fill="#394933"/>
<path d="M769.508 526.846C798.979 470.675 860.127 418.139 920.846 399.206C964.941 385.457 1010.42 387.11 1051.74 408.7C1096.05 431.849 1127.9 473.379 1142.61 520.774C1161.76 582.469 1150.79 648.363 1121.05 704.736C1115.15 716.095 1108.78 727.202 1101.97 738.034C1132.09 707.453 1155.8 655.545 1196.66 637.474C1197.72 638.962 1198.72 640.233 1199.55 641.876C1164.93 658.992 1139.08 698.46 1115.11 728.423C1101.45 745.469 1087.24 762.079 1072.52 778.219C1057.05 794.899 1041.11 811.144 1024.73 826.933C1017.89 833.624 1009.13 841.494 1002.83 848.24C1040.17 826.526 1064.7 813.363 1110.94 812.176C1126.02 811.79 1139.35 813.988 1154.22 810.814C1170.27 807.396 1180.02 793.011 1194.28 790.568C1210.92 787.71 1217.51 794.998 1235.44 788.132C1206.3 836.334 1184.04 819.464 1135.5 817.856C1132.87 817.442 1134.21 817.28 1131.46 819.148C1068.07 813.356 1009.22 839.816 966.486 886.164C964.274 887.905 964.036 887.456 963.6 889.583L964.232 890.391C950.704 901.82 945.537 907.773 934.03 920.515C936.277 906.243 1014.81 830.577 1030.49 814.381C1039.21 805.254 1047.62 795.84 1055.73 786.166C1058.87 784.818 1068.9 776.12 1070.03 772.785C1080.72 762.269 1094.12 742.359 1101.96 729.652C1138.62 670.238 1157.84 601.291 1140.14 532.004C1130.34 493.653 1110.83 458.442 1079.79 432.855C1069.95 424.75 1060.91 419.486 1050.06 412.975C1055.24 417.85 1061.36 423.342 1065.75 428.889C1079.75 446.6 1086.65 468.411 1080.78 490.65C1072.85 520.729 1038.14 538.926 1010.83 520.401C999.018 512.386 991.591 499.423 993.634 484.881C994.666 477.439 1000.41 467.83 1009.15 470.111C1011.53 470.722 1011.98 472.135 1012.92 474.051C1012.41 481.887 1003.95 476.541 1000.58 482.802C994.23 494.637 1004.61 510.829 1014.06 516.593C1034.58 529.107 1058.36 522.492 1070.38 502.391C1078.55 488.721 1078.66 473.359 1075.12 458.293L1073.31 458.029C1076.03 478.542 1069.43 494.426 1048.71 501.509C1053.64 498.192 1059.81 494.05 1062.42 488.788C1085.57 442.176 1036.36 402.627 995.396 396.637C944.238 389.158 894.155 409.409 854.588 437.486C828.802 455.462 806.154 477.56 787.55 502.894C781.829 510.722 775.51 521.998 770.722 528.255L769.508 526.846Z" fill="#797F5C"/>
<path d="M1073.31 458.029C1072.56 455.613 1069 445.587 1068.95 443.985C1072.11 448.719 1073.54 452.934 1075.12 458.293L1073.31 458.029Z" fill="#394933"/>
<path d="M1180.65 809.495L1181.05 809.565L1181.39 810.239C1178.59 811.777 1174.7 812.268 1171.47 812.907L1170.49 812.788L1170.17 812.114C1172.66 810.822 1177.71 810.078 1180.65 809.495Z" fill="#556244"/>
<path d="M176.721 -29.1929C143.562 -51.4875 101.569 -64.4043 61.6766 -56.4905C30.9084 -50.5313 3.77179 -32.5858 -13.7581 -6.60759C-45.2291 40.5504 -42.9882 106.272 7.65125 139.004C25.9288 150.818 60.1504 158.779 75.7012 138.216C78.9664 133.898 76.3731 128.622 78.3332 127.145C80.3529 127.624 80.8409 127.704 82.0687 129.683C91.9176 145.231 81.6419 162.155 67.3989 170.122C53.215 178.056 34.8637 178.305 19.6568 173.278C-38.705 153.985 -58.7225 88.1149 -41.6557 33.945C-30.6365 -1.70946 -5.71134 -31.4162 27.486 -48.4624C118.162 -95.3678 210.067 -34.9264 251.784 46.9699C261.373 65.7936 274.532 89.267 287.03 105.978C334.913 170.004 410.199 204.573 487.33 218.21C494.114 219.409 501.043 220.368 507.892 221.248C520.548 224.018 532.307 226.778 545.319 227.713C548.755 227.96 558.49 227.786 560.876 228.637C554.813 231.699 469.632 221.156 455.956 220.279L458.483 218.285C460.215 218.283 461.105 218.168 462.833 217.952C462.119 217.439 416.024 203.597 409.123 200.996C358.278 181.832 312.938 151.235 280.604 106.984C267.812 89.4797 257.162 70.3716 245.548 52.0716L247.386 51.0936C245.075 48.2911 243.094 45.0393 241.101 41.9805L242.515 41.3732C230.048 20.9285 208.898 -8.83656 187.827 -20.3689C180.165 -22.421 173.447 -24.8086 165.418 -26.7764L165.636 -27.5297C169.942 -28.8959 174.29 -28.342 176.721 -29.1929Z" fill="#868866"/>
<path d="M242.515 41.373C245.126 45.2034 245.837 46.9128 247.717 51.123L247.564 51.5582L247.386 51.0935C245.075 48.2909 243.094 45.0391 241.102 41.9803L242.515 41.373Z" fill="#394933"/>
<path d="M60.6081 161.367C22.5534 173.058 -11.0082 150.182 -28.873 116.732C-31.8686 111.122 -39.0196 93.3125 -38.6503 87.3262C-37.242 88.7429 -36.0556 94.6063 -35.3732 96.8837C-23.454 136.651 16.7707 174.109 60.6699 160.182L60.6081 161.367Z" fill="#082E1E"/>
<path d="M60.6633 160.182C63.0025 158.685 69.5413 154.009 71.4305 153.618C68.5964 157.285 65.0441 159.891 60.6016 161.368L60.6633 160.182Z" fill="#7F8260"/>
<path d="M1130.17 206.459C1143.21 203.528 1160.12 203.682 1173.13 206.046C1228.43 216.099 1268.51 264.281 1268.93 320.404C1269.17 352.992 1258.3 382.19 1240.62 409.193C1216.93 445.376 1177.27 497.785 1198.5 542.917C1197.59 544.907 1197.36 545.824 1195.7 547.281L1194.9 547.456C1193.84 545.545 1192.87 543.585 1192.01 541.581C1187.02 530.068 1186.03 519.208 1186.76 506.784C1189.76 455.468 1235.46 418.14 1252.38 375.119L1251.05 373.74C1236.18 396.998 1210.81 413.71 1183.54 417.798C1146.73 423.317 1105.79 402.495 1100.19 363.25C1096.98 340.714 1110.05 316.338 1134.4 314.178C1142.6 313.025 1153.29 318.144 1154.04 327.193C1154.38 331.372 1151.7 336.164 1146.89 335.876C1144.36 334.2 1145.07 335.291 1144.17 332.871C1144.86 330.378 1145.18 329.79 1144.86 327.165C1142.15 322.966 1136.81 321.137 1132.02 322.673C1113.11 328.738 1109.28 351.755 1114.19 368.535C1123.87 401.6 1162.46 412.94 1192.81 403.204C1224.08 393.395 1236.86 375.039 1251.55 348.289L1250.44 346.237C1241.9 359.834 1236.65 364.853 1222.28 371.533L1221.48 370.234C1227.98 366.651 1233.93 361.204 1238.4 355.257C1268.29 315.521 1251.75 255.679 1213.68 227.536C1189.17 209.417 1160.67 203.641 1130.64 208.34L1130.17 206.459Z" fill="#7F8260"/>
<path d="M1250.44 346.237C1255.59 336.046 1259.87 326.465 1259.8 314.923C1259.79 312.017 1259.11 307.723 1260.54 305.491C1261.4 306.592 1260.81 321.737 1260.48 324.048C1259.31 331.966 1255.46 341.377 1251.55 348.289L1250.44 346.237Z" fill="#394933"/>
<path d="M1256.14 364.926C1255.47 368.614 1254.04 371.767 1252.38 375.119L1251.05 373.741L1256.14 364.926Z" fill="#394933"/>
<path d="M988.102 871.098C1027.86 846.449 1070.72 831.854 1117.85 843.066C1158.6 853.091 1193.77 878.764 1215.74 914.526C1249.25 969.376 1245.89 1052.99 1186.92 1088.93C1166.23 1101.79 1141.26 1105.86 1117.56 1100.23C1088.56 1093.16 1063.98 1071.4 1058.18 1041.53C1053.9 1019.5 1061.76 993.189 1086.32 987.966L1087.3 988.275C1092.19 989.834 1098.88 993.526 1098.07 999.613C1096.82 1002.04 1096.39 1002.13 1094.13 1003.54C1090.18 1002.55 1087.77 991.666 1078.31 997.886C1058.25 1011.06 1062.59 1042.25 1073.72 1059.5C1084.17 1075.71 1098.69 1085.23 1116.72 1089.31C1138.37 1094.21 1161.08 1090.25 1179.81 1078.32C1198.14 1066.49 1211.86 1047.65 1219.42 1027.33C1234.21 987.573 1224.85 941.239 1201.94 906.432C1197.29 899.355 1191.92 892.784 1185.91 886.824C1180.52 879.438 1162 865.762 1153.29 864.225C1101.4 829.888 1039.3 841.037 988.93 872.453L988.102 871.098Z" fill="#7F8260"/>
<path d="M876.76 141.463C897.94 128.323 918.938 118.224 943.748 114.324C981.406 108.406 1020.8 122.825 1041.26 155.939C1057.78 182.677 1058.29 212.129 1051.01 241.9C1049.81 246.598 1048.51 251.268 1047.11 255.906C1049.69 251.733 1052.56 246.84 1055.27 242.825L1056.17 243.01C1056.73 244.486 1056.66 244.393 1057.99 245.258C1059.41 244.143 1058.83 244.846 1059.31 242.772C1107.21 194.51 1183.13 173.801 1240.94 217.214L1239.52 218.247C1237.18 216.443 1235.85 215.704 1233.28 214.342C1199.65 196.503 1165.17 193.954 1129.07 204.898L1130.17 206.459L1130.64 208.34C1125.89 209.363 1117.36 211.469 1112.83 211.891C1046.8 238.896 1048.69 277.083 1007.66 326.267C982.985 355.845 959.537 372.044 927.286 391.697L925.222 391.228C933.225 387.106 942.948 379.862 950.284 374.382C981.602 350.979 1008.6 322.285 1027.63 287.881C1041.96 261.97 1054.68 227.937 1046.23 197.715C1042.18 183.223 1032.05 170.79 1016.94 165.809C1014.21 164.908 1005.65 165.628 1002.22 163.77C997.911 161.441 996.977 158.416 992.308 155.892C990.49 155.961 989.29 156.203 987.675 155.399C996.317 138.047 1016.24 144.294 1028.22 154.285L1029.64 153.069C1018.64 138.119 1000.8 126.378 982.859 121.908C938.897 110.952 902.44 129.431 866.117 150.829C866.075 149.872 866.215 149.335 866.356 148.378C869.037 145.037 871.895 142.806 875.208 140.187L876.76 141.463Z" fill="#838663"/>
<path d="M1112.82 211.889C1116.76 208.584 1124.08 206.007 1129.06 204.896L1130.16 206.458L1130.63 208.339C1125.88 209.361 1117.35 211.468 1112.82 211.889Z" fill="#556244"/>
<path d="M1029.64 153.069C1033.6 157.978 1035.02 160.383 1038.17 165.918L1037.93 166.126C1034.9 162.576 1031.11 157.249 1028.22 154.285L1029.64 153.069Z" fill="#394933"/>
<path d="M875.204 140.188L876.756 141.463C872.993 143.716 870.079 146.118 866.352 148.378C869.033 145.037 871.891 142.807 875.204 140.188Z" fill="#394933"/>
<path d="M1010.36 -42.1352C1042.53 -66.4788 1081.07 -79.7476 1121.79 -74.0525C1156.61 -69.1811 1188.32 -51.7847 1210.43 -23.5915C1235.03 7.52561 1241.29 59.8647 1207.27 86.804C1200.38 92.2659 1188.59 96.7533 1179.88 95.1597C1168.11 93.0051 1163.83 89.3636 1159.54 78.4715C1164.44 83.1401 1167.85 86.2339 1175.13 85.8626C1186.3 85.2932 1196.14 75.3811 1199.85 65.474C1198.46 64.3992 1198.92 64.9116 1196.26 65.0864C1197.39 60.8672 1204.58 52.4687 1206.91 47.7257C1216.51 28.1782 1211.28 0.479258 1200.67 -17.554C1185.51 -43.3125 1164.81 -55.9942 1136.63 -63.6385C1100.67 -73.0991 1062.43 -68.0205 1030.19 -49.5017C1023.94 -45.8862 1018.41 -41.9828 1012.61 -37.7264L1010.36 -42.1352Z" fill="#808562"/>
<path d="M1218.03 8.2334C1222.1 13.5464 1222.28 30.0717 1221.68 36.6547C1220.5 49.5835 1215.16 66.2758 1205.03 74.8674L1204.75 74.4672C1207.33 69.8555 1210.44 65.7303 1213.36 60.3703C1221.14 46.1084 1222.56 23.6094 1218.03 8.2334Z" fill="#394933"/>
<path d="M254.721 421.807C262.705 429.063 268.414 426.669 269.833 427.888L269.257 429.145C266.687 430.748 258.866 432.344 255.959 431.706C230.388 426.099 226.253 390.083 229.066 370.167C235.397 325.345 263.575 286.423 298.016 259.1C344.211 222.451 401.124 211.68 458.486 218.284L455.959 220.278C403.77 219.185 334.135 227.29 316.485 287.122C313.625 296.819 315.678 307.855 317.293 317.617C321.4 322.449 323.223 325.178 329.778 326.107L330.118 327.042C328.199 328.635 321.288 329.129 319.401 328.533C288.227 318.694 294.973 280.19 312.58 261C320.067 252.841 323.037 250.202 330.334 244.555C281.458 266.382 223.296 335.314 240.986 393.615C243.745 402.704 252.882 409.311 254.576 420.778L254.721 421.807Z" fill="#7F8260"/>
<path d="M232.89 378.814C234.837 380.576 236.211 397.369 237.897 401.593C240.332 407.694 243.82 412.285 247.242 417.783C236.82 412.953 232.508 389.376 232.89 378.814Z" fill="#556244"/>
<path d="M924.088 46.9715C927.521 14.4923 912.056 -25.507 876.757 -33.7679C875.88 -33.9722 866.339 -36.3036 866.276 -36.2735C857.816 -32.1988 848.332 -30.0281 840.146 -25.6032C837.429 -24.1268 836.116 -17.4602 835.014 -16.2113C831.539 -20.2923 832.143 -27.969 834.066 -32.6601C842.477 -53.215 868.606 -56.1314 886.803 -48.1625C904.909 -40.2323 917.237 -24.1942 924.229 -6.11248C933.103 16.5795 932.295 41.9308 925.415 65.0447C923.063 72.9462 919.729 80.4495 916.331 87.9922C950.029 42.3598 962.841 -5.28759 1010.36 -42.1348L1012.62 -37.726C970.1 -2.46189 958.874 31.0008 929.965 75.2425C914.485 99.0838 896.091 120.9 875.206 140.187C871.892 142.807 869.035 145.037 866.353 148.378C866.212 149.335 866.072 149.872 866.114 150.829C818.551 183.835 792.372 197.557 736.055 210.716L733.422 209.303C794.036 197.225 866.676 152.157 903.175 101.935C910.504 91.85 916.507 77.4926 920.305 65.6302C922.537 60.0694 924.812 52.9437 924.088 46.9715Z" fill="#858864"/>
<path d="M660.333 -61.6024C624.929 -76.8091 583.256 -81.8549 546.645 -67.8784C507.479 -52.9257 477.29 -8.7556 493.458 33.1371C499.718 49.3577 519.73 66.0677 538.64 58.4653C544.427 56.1387 546.466 53.1165 545.9 46.9434C547.036 45.3007 546.3 45.9016 548.355 45.3856C552.937 49.409 549.678 58.7208 545.934 62.5427C532.089 76.6733 507.692 69.3062 495.407 56.5635C483.921 44.8977 477.892 28.5823 478.414 12.2648C480.387 -49.516 542.387 -82.5657 597.353 -81.4338C627.063 -80.6621 656.134 -72.5915 681.99 -57.9335C680.088 -56.1044 679.288 -55.7656 677.048 -54.4955C673.538 -56.1768 669.241 -57.9101 665.612 -59.4704C664.545 -59.7678 661.512 -61.1096 660.333 -61.6024Z" fill="#7F8260"/>
<path d="M19.4068 586.836C21.1289 588.486 23.1837 590.894 25.2302 591.659C23.0068 588.135 20.5328 584.934 18.2442 581.501C0.670071 555.112 -11.1136 522.195 -9.95247 490.204C-8.90363 461.32 1.16009 423.454 27.0492 406.866C36.6699 400.701 51.0504 398.108 62.1932 400.529L63.1389 401.498C59.3198 408.102 57.9508 406.196 55.2901 415.719C51.2098 430.323 37.8276 436.83 25.3902 442.865C3.56597 454.598 -5.61809 479.839 -4.75528 503.552C-3.69169 539.523 14.1724 571.89 35.7467 599.508C33.8035 600.112 34.4536 600.084 32.497 600.056C27.4514 597.065 21.2265 592.684 19.4068 586.836Z" fill="#8A8C69"/>
<path d="M25.1683 423.626L26.0051 423.952C26.2445 425.352 21.9242 429.037 20.4211 430.724C11.1612 441.111 4.61474 451.842 0.0220021 464.962L-0.812022 465.024L-1.25781 463.978C4.88573 446.787 12.3596 436.241 25.1683 423.626Z" fill="#556244"/>
<path d="M573.188 917.861C619.768 924.439 667.64 917.026 708.365 888.397C742.519 864.387 770.517 806.406 729.539 773.396C727.685 771.908 724.66 771.641 722.336 769.57C739.515 767.934 751.85 790.708 753.661 805.247C754.187 809.516 753.015 812.801 754.461 817.315C754.945 816.88 754.784 817.168 754.819 816.396C755.788 795.868 753.043 778.387 738.693 762.746C728.935 752.11 714.648 745.237 700.165 744.795C687.325 744.437 674.871 749.211 665.555 758.056C652.82 770.286 646.874 789.76 659.082 804.651C661.932 808.126 670.862 810.429 675.299 808.386C677.827 804.082 672.695 801.667 678.03 798.817C679.954 799.147 682.109 799.743 682.958 801.569C687.915 812.127 673.635 817.751 665.042 814.374C649.113 808.119 644.136 785.043 651.149 770.848C674.253 724.022 738.553 733.794 756.048 780.304C764.191 801.955 761.868 821.83 753.268 842.701C726.787 901.764 653.901 926.616 593.062 921.414C586.562 920.852 579.121 919.743 572.781 919.42L573.188 917.861Z" fill="#7B805D"/>
<path d="M1055.73 786.166C1078.07 754.497 1096.87 716.123 1077.64 677.813C1071.6 665.794 1064.66 658.022 1051.64 653.368C1045.37 651.121 1032.3 654.07 1026.54 657.517C1022.72 660.023 1022.79 661.378 1021.83 665.752L1021.57 666.995C1014.73 663.913 1016.69 654.568 1019.2 649.247C1026.32 632.595 1048.66 629.07 1063.59 636.624C1104.29 657.208 1099.34 711.778 1083.17 746.95C1078.92 756.196 1074.1 764.058 1070.03 772.785C1068.9 776.119 1058.87 784.818 1055.73 786.166Z" fill="#828562"/>
<path d="M1043.12 58.6592C1086.57 59.1941 1103.32 99.3746 1102.57 137.613C1101.78 177.855 1078.94 208.125 1059.81 241.429C1059.65 241.877 1059.48 242.324 1059.31 242.772C1058.83 244.846 1059.41 244.143 1057.99 245.259C1056.67 244.393 1056.73 244.486 1056.18 243.01L1055.28 242.826C1057.28 238.682 1063.03 230.046 1065.67 225.515C1078.74 203.04 1094.53 177.48 1095.98 150.962C1096.8 135.992 1091.9 119.158 1079.22 110.317C1071.4 104.869 1062.8 100.506 1057.39 92.3121C1048.59 78.9607 1054.36 70.8775 1043.12 58.6592Z" fill="#8A8C69"/>
<path d="M1075.12 85.5322C1084.52 93.5678 1091.54 107.898 1095.1 119.554C1093 118.433 1091.32 113.48 1090.26 111.027C1086.27 101.776 1080.78 93.8268 1075.12 85.5322Z" fill="#556244"/>
<path d="M-53.1797 1121.94C-45.709 1108.51 -33.3784 1100.02 -18.4032 1102.45C54.1679 1114.22 33.9906 1218.55 -9.0219 1252.64C-18.3394 1260.01 -25.8182 1264.32 -37.168 1263.19C-21.8418 1259.77 -10.7938 1250.21 -0.333466 1237.86C17.3277 1216.99 33.5757 1175.1 7.25276 1154.14C0.499151 1148.76 -9.4691 1145.81 -10.0314 1134.88C-10.1662 1132.27 -9.76184 1131.63 -8.1647 1129.77C2.95488 1125.41 15.0054 1138.5 18.7964 1148.22L20.4146 1147.91C16.0963 1136.46 13.6862 1130.4 4.98939 1121.25C-8.91869 1106.61 -33.8607 1102.25 -49.0641 1117.77L-53.1797 1121.94Z" fill="#757C5A"/>
<path d="M20.4229 1147.91C21.6395 1152.85 23.0689 1160.42 22.9123 1165.49C21.3236 1160.97 20.0691 1153.39 18.8047 1148.22L20.4229 1147.91Z" fill="#556244"/>
<path d="M5.28906 1139.86C7.30181 1140.58 10.0664 1142.01 12.0609 1142.96C14.0035 1145.97 14.8354 1146.97 15.9341 1150.39L13.7128 1150.32C9.886 1147.32 7.92381 1143.89 5.28906 1139.86Z" fill="#556244"/>
<path d="M101.073 50.6423C86.5305 32.3991 95.5313 10.8402 113.273 -0.616344C126.577 -9.20719 143.398 -11.2585 158.821 -9.51468C187.486 -6.27407 225.778 17.7714 241.097 41.9805C243.089 45.0393 245.07 48.2912 247.381 51.0937L245.544 52.0716C241.413 46.496 236.959 41.2055 232.121 35.6755C206.835 6.77612 155.264 -16.8447 124.299 17.1593C119.101 22.8668 116.118 29.5839 109.286 34.6653C102.695 39.5655 101.42 42.8426 101.073 50.6423Z" fill="#91926E"/>
<path d="M9.69357 1015.09C75.1594 1065.97 159.162 1021.26 170.993 943.472C174.63 919.561 164.164 880.282 133.341 883.827C127.753 884.452 123.975 891.451 122.058 896.324L121.027 896.541C116.034 892.659 116.943 885.477 120.542 880.83C123.597 876.884 130.873 875.396 135.54 875.276C158.303 875.719 171.673 899.111 175.238 919.062C187.596 1001.61 89.4669 1075.56 16.1186 1028.14C12.0531 1025.51 8.15821 1022.42 4.42969 1019.24C6.10335 1017.49 7.73137 1016.47 9.69357 1015.09Z" fill="#787E5B"/>
<path d="M146.08 194.898C139.712 209.406 137.091 222.836 140.202 239.715C143.803 259.257 161.459 279.858 183.493 276.433C191.626 275.169 191.242 265.615 194.506 260.211C199.413 258 205.118 264.51 201.175 271.06C192.331 285.753 174.283 285.695 161.205 277.419C128.595 256.425 126.367 212.248 146 181.842C182.33 125.575 253.548 125.992 307.937 153.38C313.634 156.249 319.08 157.63 324.624 161.083L324.601 161.501C317.6 160.118 306.469 154.037 299.125 151.42C247.731 133.11 191.417 132.485 155.262 179.425C153.097 182.208 146.48 191.802 146.08 194.898Z" fill="#7F8360"/>
<path d="M330.03 -56.7176C353.747 -57.1059 379.829 -38.6593 365.152 -11.8625C363.123 -8.15854 353.082 -3.72938 348.552 -3.53983C346.672 -4.4609 347.294 -3.76518 346.529 -5.60592C354.555 -10.0625 354.42 -11.296 356.565 -20.1451C353.373 -29.3769 350.752 -37.621 341.984 -42.9242C319.92 -56.2714 296.004 -39.6758 284.946 -20.7559C269.479 5.70742 269.54 34.6047 276.303 63.198C282.28 87.7041 293.071 106.813 307.215 127.244C288.233 110.829 273.659 70.5329 269.75 46.0564C262.969 3.59288 280.824 -51.4476 330.03 -56.7176Z" fill="#7F8260"/>
<path d="M739.451 -0.268154C728.619 -10.9195 720.636 -18.6222 706.097 -24.459C691.474 -30.3308 675.706 -32.0803 660.907 -25.5956C657.298 -24.0209 653.922 -21.9646 650.861 -19.4829C647.709 -16.9008 621.803 8.73058 621.228 10.3776C620.456 12.5714 619.803 14.8285 619.15 17.0582C609.012 7.82845 611.125 -9.81377 619.115 -19.881C642.127 -48.8548 688.757 -40.7702 716.066 -22.8815C722.511 -18.663 726.8 -14.2787 732.669 -9.91838L733.238 -9.50066C736.18 -7.41982 739.549 -4.15183 739.451 -0.268154Z" fill="#949571"/>
<path d="M1153.29 864.227C1161.99 865.764 1180.51 879.44 1185.91 886.825L1186.24 887.415C1189.83 893.649 1194.34 899.525 1197.98 905.879C1216.31 937.892 1222.07 983.714 1182.71 1001.66C1189.88 992.454 1194.32 985.679 1195.14 973.492C1196.32 955.934 1198.7 938.158 1193.34 920.986C1192.13 917.118 1190.99 910.751 1187.63 908.279C1187.16 910.849 1189.41 915.665 1189.66 918.592C1190.48 928.133 1189.59 944.21 1183.29 951.687L1182.21 952.059L1184.82 947.643C1190.11 938.706 1188.91 921.534 1186.36 911.762C1186.01 910.442 1185.62 909.129 1185.2 907.83C1183.15 900.016 1177.73 891.353 1173.37 884.649C1172.17 883.673 1168.11 878.639 1166.76 877.193C1162.41 872.497 1158.04 868.488 1153.29 864.227Z" fill="#737B58"/>
<path d="M1173.38 884.649L1175.31 883.596C1180.12 885.955 1188.37 899.286 1190.26 904.425C1188.52 907.402 1188.31 905.239 1185.2 907.83C1183.15 900.016 1177.73 891.353 1173.38 884.649Z" fill="#556244"/>
<path d="M681.997 -57.9336C723.986 -34.2903 757.55 1.58669 770.98 48.7173C782.873 90.4465 775.157 141.674 753.942 179.141C748.459 188.825 740.259 199.787 733.134 208.309L733.428 209.302L736.061 210.715C733.527 211.015 730.992 211.291 728.458 211.546L726.927 210.666C728.409 206.552 735.717 199.736 738.336 195.468C742.141 189.27 745.567 181.538 748.269 174.79C749.266 175.364 748.642 175.079 750.221 175.456C751.232 173.023 751.555 172.593 753.31 170.605L753.759 171.149C755.55 169.477 755.627 168.065 756.715 165.621C764.051 149.52 768.755 132.346 770.643 114.755C775.333 73.2438 765.638 32.6533 739.466 -0.268791C739.564 -4.15247 736.194 -7.42046 733.253 -9.5013C718.833 -29.4167 698.425 -43.1051 677.055 -54.4956C679.294 -55.7657 680.094 -56.1045 681.997 -57.9336Z" fill="#7A7E5D"/>
<path d="M465.537 207.127C447.076 197.325 435.162 191.546 418.737 176.454C389.082 149.206 365.823 96.3046 396.178 61.3178C412.096 45.4609 432.032 42.4498 449.375 58.4774C459.411 67.7527 457.39 87.6365 444.373 86.3005C445.774 85.1288 448.599 83.8167 449.35 82.5116C455.323 72.3405 448.146 60.4024 438.484 55.8152C420.667 47.3564 401.019 59.1773 392.904 75.3874C384.776 91.6241 385.826 110.894 391.389 127.614C403.063 162.705 433.98 189.534 466.233 205.648L465.537 207.127Z" fill="#808260"/>
<path d="M690.624 452.164C738.278 447.62 765.904 497.163 751.596 538.742C751.105 536.828 751.575 531.381 751.73 529.089C753.393 503.987 747.84 485.067 728.583 468.29C721.359 462.087 712.401 458.266 702.924 457.351C686.545 455.729 664.972 464.931 664.579 483.111C664.249 498.194 671.304 499.303 682.888 499.093L682.761 500.229C677.693 506.148 672.771 505.572 666.425 501.548C655.396 494.556 656.435 478.433 663.167 468.802C669.942 459.103 679.321 454.331 690.624 452.164Z" fill="#7F8260"/>
<path d="M564.962 901.047L565.904 900.738C576.723 897.108 588.004 886.185 595.698 877.29C597.158 875.605 596.4 869.237 596.183 866.612C616.984 861.571 618.051 914.477 560.85 907.541C555.612 908.06 538.974 905.182 535.781 901.335C538.593 900.422 549.58 902.612 553.929 902.451C558.765 902.268 560.074 902.009 564.962 901.047Z" fill="#747B58"/>
<path d="M560.85 907.542C555.612 908.061 538.974 905.183 535.781 901.336C538.593 900.423 549.58 902.613 553.929 902.452C558.765 902.269 560.074 902.01 564.962 901.048C568.241 902.403 568.844 902.698 572.415 902.606L572.682 903.842L568.037 905.127L572.195 905.906L572.331 906.362C570.011 906.615 562.271 907.135 560.85 907.542Z" fill="#556244"/>
<path d="M572.422 902.606C575.71 901.314 578.593 899.889 581.952 898.731L583.005 899.819L583.883 898.808L583.539 898.534L583.588 899.173C580.266 901.377 576.456 902.515 572.689 903.842L572.422 902.606Z" fill="#556244"/>
<path d="M260.666 158.05C277.734 155.893 297.516 160.357 313.994 164.716C311.188 164.869 305.802 164.206 302.731 164.04C289.594 163.332 280.417 164.401 269.293 171.414C245.33 192.047 245.378 176.629 227.359 182.198C237.145 165.827 241.105 161.411 260.666 158.05Z" fill="#6C7653"/>
<path d="M270.917 162.103C273.354 161.784 278.711 161.363 280.974 162.138C278.924 163.09 277.599 163.021 275.363 163.191C271.088 163.633 269.127 164.274 264.445 164.325C266.415 163.096 268.646 162.703 270.917 162.103Z" fill="#556244"/>
<path d="M873.659 460.658C892.488 458.937 922.844 463.213 923.665 487.545C923.89 494.249 914.539 506.199 907.588 498.105C907.827 496.451 910.867 494.873 912.819 493.291C917.017 483.366 909.098 474.051 900.463 469.991C882.645 461.613 860.945 465.644 843.134 471.926C828.665 477.907 815.186 486.04 803.153 496.048C798.541 499.83 792.63 506.014 788.102 509.007C808.552 484.181 841.723 465.35 873.659 460.658Z" fill="#6C7553"/>
<path d="M718.884 1206.14C742.353 1193.62 767.676 1182.83 795.926 1190.2C809.152 1193.65 835.85 1213.25 815.913 1229.89C813.954 1231.53 805.01 1232.23 803.55 1227.77C804.869 1225.24 820.005 1223.7 815.562 1212.94C804.42 1185.97 764.734 1191.21 743.132 1199.31C730.411 1204.08 722.317 1209.45 711.583 1214.89C710.747 1213.43 711.077 1214.19 711.049 1212.31C712.769 1209.51 716.251 1208.86 718.884 1206.14Z" fill="#7F835F"/>
<path d="M920.309 65.63C920.056 55.9966 921.228 54.0569 919.298 43.4603C918.526 26.0744 892.494 19.5096 889.531 5.41056C887.25 -5.42821 904.822 -0.189601 909.771 4.36171C922.92 16.4613 922.948 30.877 924.093 46.9712C924.816 52.9435 922.541 60.0692 920.309 65.63Z" fill="#556244"/>
<path d="M1205.24 553.25C1213.3 561.204 1220.79 567.124 1232.95 567.184C1240.57 567.26 1247.91 564.309 1253.35 558.98C1257.83 554.527 1262.65 544.956 1256.57 539.659C1254.11 537.517 1251.16 537.669 1249.51 534.737C1252.41 523.073 1265.82 532.238 1267.22 538.794C1271.01 556.48 1258.51 569.045 1242.37 571.99C1230.86 574.033 1219.02 571.326 1209.55 564.488C1206.53 562.331 1204.91 560.759 1202.34 558.03C1203.22 556.056 1203.61 554.649 1205.24 553.25Z" fill="#7F8260"/>
<path d="M506.566 159.723L507.617 160.644C507.29 162.195 506.852 163.73 506.566 165.288C506.185 167.273 506.33 169.324 506.988 171.235C508.96 176.812 521.902 194.723 525.986 200.367C529.1 204.671 534.568 208.314 537.589 213.062C523.539 208.057 519.558 200.743 510.146 191.89C511.045 195.09 512.803 196.924 514.826 199.598L515.556 200.006L514.797 200.863C512.918 200.794 513.012 200.772 511.219 201.322L511.42 202.352C514.231 204.765 515.738 206.039 518.98 207.818C521.103 208.983 529.468 212.809 530.377 213.826L529.856 214.22C520.649 212.057 503.55 198.807 498.957 189.947C492.582 177.644 493.684 166.406 506.566 159.723Z" fill="#556244"/>
<path d="M615.75 109.662C630.921 71.0085 677.094 60.9603 712.231 78.6102C720.291 82.6603 725.647 87.2347 732.345 93.1241L728.399 94.8645C695.214 64.1896 635.597 65.6786 619.197 112.182L617.8 113.131L616.67 112.609L615.75 109.662Z" fill="#848764"/>
<path d="M1196.66 637.475C1210.21 631.43 1224.72 629.317 1238.87 634.582C1254.36 640.346 1267.2 658.381 1259.52 674.739C1255.46 683.402 1248.17 688.007 1238.74 686.042C1244.61 684.968 1246.35 686.175 1251.11 680.769C1255.19 676.108 1257.19 669.986 1256.65 663.815C1256.04 656.247 1251.61 648.111 1245.41 643.723C1230.14 632.918 1215.37 635.993 1199.56 641.876C1198.73 640.234 1197.73 638.963 1196.66 637.475Z" fill="#7F8260"/>
<path d="M732.344 93.125C736.121 95.9605 739.638 100.578 742.369 104.447C756.508 124.531 759.288 147.216 753.307 170.605C751.552 172.594 751.229 173.024 750.218 175.457C748.638 175.08 749.263 175.365 748.266 174.791C757.245 141.996 751.123 119.577 728.398 94.8654L732.344 93.125Z" fill="#7F8260"/>
<path d="M615.742 109.662L616.662 112.609L617.792 113.131L619.189 112.182C617.561 119.742 617.174 124.454 619.26 132.267C621.569 140.956 630.998 152.146 640.988 149.106L645.698 147.65C638.903 157.024 622.917 148.627 618.529 140.333C612.766 129.45 612.913 121.063 615.742 109.662Z" fill="#7F8260"/>
<path d="M242.901 1036.3C244.175 1036.2 243.546 1036.13 244.784 1036.51C243.013 1037.92 224.053 1042.35 220.206 1043.67C201.87 1049.99 184.293 1057.23 167.808 1067.58C166.686 1068.13 166.749 1067.96 165.43 1068.13L165.566 1067.36C189.924 1051.2 214.313 1041.84 242.901 1036.3Z" fill="#556244"/>
<path d="M146.076 194.898C146.476 191.802 153.094 182.208 155.258 179.425C155.594 184.286 153.238 186.629 151.31 191.352C144.019 209.219 145.399 221.97 153.777 238.645C135.924 220.243 149.736 201.155 146.076 194.898Z" fill="#556244"/>
<path d="M1198.49 542.916C1200.82 546.824 1202.46 549.646 1205.24 553.25C1203.61 554.649 1203.22 556.056 1202.34 558.03C1199.73 554.887 1196.67 551.084 1194.89 547.455L1195.69 547.28C1197.35 545.823 1197.59 544.906 1198.49 542.916Z" fill="#556244"/>
<path d="M966.495 886.164C968.826 885.259 984.467 873.605 988.104 871.099L988.932 872.454C980.585 878.266 972.35 884.248 964.241 890.391L963.609 889.583C964.045 887.456 964.283 887.905 966.495 886.164Z" fill="#556244"/>
<path d="M403.314 973.708C406.952 974.515 418.474 978.37 421.554 980.286L421.517 981.529C413.994 979.022 406.446 976.586 398.875 974.228L403.314 973.708Z" fill="#394933"/>
<path d="M233.602 1022.84C231.811 1024.18 216.097 1034.01 214.312 1034.79L214.289 1034.31C216.128 1031.3 228.43 1023.89 231.987 1021.99L233.602 1022.84Z" fill="#394933"/>
<path d="M572.774 919.42C568.683 918.929 562.118 918.388 558.758 916.289L559.144 915.699C563.141 915.201 569.175 916.844 573.181 917.862L572.774 919.42Z" fill="#556244"/>
<path d="M446.902 1202.03C441.848 1204.11 435.901 1204.31 430.555 1203.43C432.023 1202.77 443.535 1201.23 446.434 1200.61L446.902 1202.03Z" fill="#394933"/>
<path d="M1222.27 371.533C1217.51 373.788 1213.51 374.679 1208.3 375.302C1211.32 373.504 1217.9 371.466 1221.47 370.234L1222.27 371.533Z" fill="#394933"/>
<path d="M763.461 537.732C765.293 533.98 767.413 530.458 769.513 526.846L770.727 528.255C769.288 530.503 765.49 535.8 765.314 538.14L763.461 537.732Z" fill="#394933"/>
<path d="M1240.94 217.214C1244.73 219.808 1248.3 223.282 1251.37 226.691C1246.85 223.888 1243.74 221.501 1239.52 218.247L1240.94 217.214Z" fill="#556244"/>
<path d="M0.824155 1254.04L2.71685 1253.53C1.06987 1256.15 -1.33742 1259.47 -4.23263 1260.62L-4.57031 1259.89C-2.81381 1256.97 -1.79234 1256.34 0.824155 1254.04Z" fill="#394933"/>
<path d="M927.277 391.696C926.407 392.298 925.522 392.888 924.63 393.465C923.023 394.487 921.773 395.331 920.039 394.922C921.064 393.029 923.191 392.293 925.213 391.227L927.277 391.696Z" fill="#394933"/>
<path d="M466.235 205.648C469.112 206.983 469.4 206.572 471.004 208.78C469.124 209.431 467.247 208.16 465.539 207.128L466.235 205.648Z" fill="#556244"/>
</g>
<defs>
<clipPath id="clip0_7114_26384">
<rect width="1254" height="1254" fill="white"/>
</clipPath>
</defs>
</svg>
