<svg width="1254" height="1254" viewBox="0 0 1254 1254" fill="none" xmlns="http://www.w3.org/2000/svg">
<g clip-path="url(#clip0_7114_26384)">
<rect width="1254" height="1254" fill="#082E1E"/>
<path d="M929.886 646.871C929.275 703.729 929.858 761.732 929.858 818.681L929.801 885.971C929.787 898.419 929.598 910.964 929.921 923.341C930.251 936.462 932.546 945.441 946.826 948.165C955.994 949.913 996.284 964.473 992.711 975.931C991.497 976.633 991.124 976.886 989.657 976.647C987.39 976.268 985.122 974.899 982.939 974.134C978.375 972.533 972.949 972.378 968.154 972.814C954.106 974.105 940.325 980.459 927.878 986.742C911.176 995.174 895.205 1005.11 879.472 1015.21C869.124 1021.86 787.751 1079.4 781.411 1079.23C779.347 1079.18 778.989 1078.75 777.571 1077.42C776.947 1075.42 776.413 1074.41 778.266 1072.48C781.601 1069.01 786.003 1066.44 789.464 1062.91C802.824 1049.17 816.085 1033.76 819.89 1014.47C823.773 994.745 812.526 976.513 792.209 973.389C780.773 971.627 767.251 974.148 756.321 977.826C704.454 995.258 660.64 1032.4 622.667 1070.66C612.67 1080.79 603.375 1091.28 593.616 1101.55C587.649 1107.84 581.352 1115.43 574.475 1120.46C572.293 1120.56 572.396 1120.44 570.406 1119.42C567.642 1114.3 574.057 1108.62 576.888 1104.24C616.096 1043.49 549.823 1032.4 508.479 1015.5C471.515 1000.3 436.903 979.911 405.684 954.961C319.282 885.782 270.666 792.579 258.299 683.532C237.167 497.195 336.875 321.764 517.609 262.21C547.14 252.478 578.598 244.043 606.169 229.414C628.613 217.503 649.871 201.634 668.987 184.993C672.392 182.023 677.208 180.444 680.88 184.14C695.658 198.997 710.611 212.498 726.919 225.665L728.45 226.545C781.482 267.775 874.614 311.651 933.719 251.612C937.868 247.396 939.202 235.155 944.804 232.763C946.461 233.164 947.163 233.376 948.132 234.973C950.322 238.589 948.328 244.648 946.952 248.172C941.525 262.023 929.963 274.542 919.587 284.987C905.286 299.385 889.757 312.752 874.361 325.962C854.704 342.823 772.313 406.001 782.766 433.539C784.114 437.084 787.435 439.375 787.639 443.397C785.083 446.192 779.158 442.834 777.136 440.593C762.548 424.388 775.95 399.923 784.058 383.95C787.182 377.792 793.234 368.721 789.141 362.042C783.3 358.882 768.592 356.646 761.396 354.469C714.584 340.307 672.757 313.794 631.596 288.05C626.352 284.767 620.195 280.383 614.755 277.688C588.737 290.768 583.893 324.981 583.865 350.818C583.844 368.103 583.802 385.401 583.809 402.686V591.142L583.823 649.701C583.837 662.386 584.195 676.561 583.184 689.029C582.384 699.307 580.28 709.437 576.921 719.181C561.73 763.276 517.881 800.197 478.445 824.691C476.188 826.095 475.018 825.87 472.597 825.196C470.557 823.083 471.164 824.283 470.56 821.546C471.166 818.983 475.321 814.89 477.286 812.84C506.029 782.884 502.249 737.715 502.221 699.307L502.226 613.012L502.232 474.41C502.228 451.579 502.485 428.521 502.136 405.687C502.058 400.562 500.972 390.258 498.48 385.731C495.646 380.582 488.632 375.523 489.783 369.495C492.605 364.829 508.267 352.846 513.394 348.506C534.355 330.964 554.865 312.888 574.902 294.297C579.337 290.145 593.553 278.446 593.216 273.223C590.885 270.2 586.61 269.693 582.973 269.214C556.647 265.747 529.052 280.958 509.169 297.072C436.144 357.178 402.465 458.448 391.848 549.59C379.27 657.556 398.974 766.351 467.798 853.832C538.738 944.002 684.383 1021.06 792.202 944.634C815.32 928.248 812.68 899.717 812.68 874.437V820.478L812.645 729.515C812.638 713.74 812.996 696.014 812.533 680.401C797.095 674.707 781.812 668.613 766.69 662.12C733.715 648.17 704.11 634.115 669.156 651.14C655.803 657.648 645.995 665.082 638.132 677.55C637.22 678.99 635.395 679.004 633.927 679.046C631.231 677.649 632.2 678.631 630.761 676.16C629.968 663.271 663.631 633.343 673.536 624.553C700.347 600.754 727.411 576.326 755.885 554.587C757.577 553.294 760.189 552.935 762.218 552.79C762.632 552.76 763.046 552.741 763.46 552.731L765.314 553.139C772.124 555.135 788.277 562.456 795.445 565.367C841.976 584.26 894.131 609.804 944.151 587.793C957.047 582.153 968.877 574.344 979.134 564.704C981.731 562.218 983.851 559.413 987.312 559.161L988.695 560.359C990.598 565.424 984.841 575.174 982.244 579.706C968.013 604.538 951.08 627.537 929.886 646.871Z" fill="#EBE8DA"/>
<path d="M129.355 700.711C110.014 685.835 87.4661 670.875 68.867 655.381C9.91477 606.273 -58.9812 532.358 -54.2725 450.157C-52.892 426.056 -44.9586 403.403 -36.0631 381.092C-27.4842 359.573 -14.8061 336.301 -22.1248 312.382C-24.4233 304.871 -29.372 296.927 -36.603 293.396C-40.9486 291.226 -45.9956 290.941 -50.559 292.605C-60.1757 296.055 -65.0315 306.445 -60.9672 315.963C-60.4426 317.192 -60.3728 317.289 -60.1025 318.696L-61.1355 318.958C-64.1014 317.33 -66.5621 312 -67.4585 308.784C-68.9539 303.419 -67.0543 296.5 -64.3478 291.831C-60.8849 285.857 -55.4693 281.989 -48.8051 280.312C-42.1652 278.641 -35.4678 279.806 -29.6247 283.321C-23.9249 286.751 -19.5308 292.021 -16.7114 298.01C-1.96582 329.329 -32.4336 373.678 -30.9165 379.393C-29.1495 376.318 -27.3326 373.976 -25.2967 371.15C4.55401 329.716 55.9278 305.241 106.896 318.162C135.456 325.228 159.898 343.641 174.569 369.143C186.206 389.102 191.693 416.532 185.558 439.018L185.343 439.778C184.173 444.618 183.522 446.832 181.709 451.455C175.93 465.431 167.026 476.148 153.019 482.263C137.726 488.939 120.053 485.462 112.506 469.43C109.931 463.961 113.645 459.714 118.086 457.073C120.077 456.837 119.982 456.982 121.798 457.935L121.931 459.253C119.625 461.997 117.565 463.666 118.087 467.287C118.363 469.203 119.435 471.037 121.046 472.076C126.719 475.735 133.937 476.138 140.317 474.98C152.357 472.794 159.843 465.038 166.33 455.265C178.517 436.901 181.308 417.04 176.84 395.65C171.713 371.097 156.295 349.786 134.864 336.712C110.471 321.83 80.438 317.1 52.6373 323.75C18.0416 332.026 -8.85562 353.855 -26.9486 384.145C-46.4154 416.734 -51.6447 457.459 -42.6342 494.228C-34.9581 525.551 -17.398 555.048 1.80553 580.68C4.42413 584.174 18.5126 600.257 19.4049 601.836C21.2246 607.684 27.4496 612.065 32.4951 615.056C34.4517 615.084 33.8016 615.112 35.7449 614.508C53.5872 635.197 73.544 653.963 95.2897 670.496C123.296 691.964 154.191 711.705 181.059 734.599C179.472 731.447 164.761 716.956 161.446 713.362C135.561 685.596 107.572 648.15 119.849 607.993C127.256 583.762 155.814 565.777 179.875 579.434C187.537 583.782 195.203 594.247 192.078 603.851C190.566 608.506 183.433 615.365 177.832 612.879C176.426 610.605 176.475 611.651 176.638 609.559C179.152 606.919 184.076 602.243 183.699 598.375C182.362 584.672 170.608 578.657 158.28 579.771C148.39 580.713 139.313 585.654 133.152 593.447C123.57 605.332 120.063 620.686 122.12 635.71C127.875 677.727 161.01 708.174 189.458 736.607C219.668 766.801 245.645 801.208 258.792 842.312C266.162 864.651 269.154 888.205 267.603 911.674C265.169 945.87 251.997 982.32 230.891 1009.36C230.427 1009.95 229.954 1010.52 229.47 1011.1C236.164 1006.36 242.505 1001.73 249.622 997.702C293.022 973.137 343.87 972.007 390.971 985.325C394.946 986.448 399.292 987.768 403.313 988.709L398.874 989.228C393.81 987.15 381.221 984.777 375.618 983.949C340.051 978.662 305.053 981.112 271.647 995.167C256.072 1001.82 241.435 1010.49 228.108 1020.93C218.144 1028.61 209.691 1037.22 200.69 1046.04C197.871 1048.8 195.775 1050.97 192.09 1054.27C152.198 1090.03 109.37 1123.83 77.3322 1167.19C77.2733 1167.38 77.215 1167.58 77.156 1167.77C83.5811 1163.71 92.0841 1155.7 98.6601 1150.54C141.901 1116.61 220.138 1096.11 256.174 1152.44C266.267 1167.95 269.736 1186.86 265.811 1204.94C261.494 1224.21 249.013 1242.16 230.092 1249.29C215.985 1254.61 199.099 1254.16 189.475 1240.84C186.607 1236.87 186.769 1227.06 191.42 1224.16C194.381 1224.05 192.985 1223.77 195.725 1225.21C195.692 1229.33 187.702 1233.31 195.017 1240.22C208.157 1252.63 225.655 1245.23 235.938 1233.89C245.43 1223.23 250.337 1209.26 249.596 1195.01C247.056 1150.92 204.876 1128.29 164.582 1131.36C100.947 1136.21 62.2314 1184.92 28.8165 1233.75C20.5359 1245.84 11.2388 1257.02 2.71678 1268.53L0.824082 1269.04C8.53106 1261.33 32.4376 1222.78 38.9778 1212.5C56.3188 1185.24 70.7997 1164.95 92.0118 1140.34C106.885 1123.07 122.885 1106.81 139.904 1091.65C170.153 1064.36 199.733 1041.07 223.645 1007.42C258.116 958.928 263.964 890.536 224.327 842.832C203.997 818.633 174.801 803.616 143.295 801.152C111.949 798.442 80.285 807.428 56.6277 827.394C21.0189 857.441 -0.291466 919.726 45.0686 950.988C47.7034 952.806 49.2984 956.331 52.3081 957.896C57.6386 960.662 67.3513 962.017 72.0992 957.608C73.6507 956.162 75.1889 954.702 76.7144 953.228C85.221 960.325 66.8002 975.896 56.4943 976.739C24.3655 979.378 5.25394 948.861 2.55601 920.442C-0.0787428 892.684 10.8639 866.245 28.1263 845.149C24.23 847.655 17.3164 854.682 14.1797 858.312C-10.1495 886.436 -26.0057 921.692 -23.9663 959.363C-22.4927 986.574 -10.6971 1012.14 9.68942 1030.09C7.72722 1031.47 6.09919 1032.49 4.42553 1034.24C2.26676 1032.3 0.176802 1030.39 -1.83594 1028.3C-21.7577 1007.58 -32.4975 979.708 -31.6319 950.974C-29.4675 869.355 57.2104 791.492 138.277 795.29C210.432 798.681 260.967 856.529 257.765 928.123L258.189 932.447L259.148 932.932C272.266 863.76 243.617 804.48 195.2 756.755C151.102 713.278 92.8199 682.795 29.8562 682.465C2.99057 683.385 -15.181 688.257 -35.6868 706.91C-57.9715 727.185 -62.7157 779.915 -23.2734 782.667C-19.6691 782.92 -15.9996 780.21 -13.5094 777.367L-12.6579 776.37L-11.9453 777.002C-10.8824 784.893 -23.5584 788.972 -29.3004 788.761C-64.071 788.494 -74.7368 741.058 -59.8744 715.356C-18.1148 643.144 70.2402 672.869 128.008 701.715L129.355 700.711Z" fill="#7F8260"/>
<path d="M257.76 928.122L258.184 932.447L259.143 932.931C258.72 938.182 256.996 942.984 255.164 947.863C256.143 941.299 257.008 934.714 257.76 928.122Z" fill="#394933"/>
<path d="M181.712 451.455C180.466 448.218 181.705 441.018 185.346 439.778C184.177 444.618 183.525 446.832 181.712 451.455Z" fill="#9E9B73"/>
<path d="M129.354 700.711C133.168 702.761 134.833 703 137.045 706.552C134.391 706.489 130.3 703.358 128.008 701.715L129.354 700.711Z" fill="#556244"/>
<path d="M11.9191 898.911C12.1298 909.4 12.4029 917.115 15.3353 927.4C20.946 947.071 34.6069 964.818 56.2058 967.009C57.7272 967.163 57.9995 967.016 59.3475 967.893C29.3171 967.893 12.3488 939.194 11.1483 911.983C10.9517 907.539 10.7594 903.257 11.9191 898.911Z" fill="#394933"/>
<path d="M225.336 1136.54C234.254 1138.98 243.788 1150.53 248.571 1158C254.718 1167.6 257.589 1176.73 258.412 1187.97C257.966 1187.78 257.52 1187.59 257.074 1187.4C255.958 1182.44 254.763 1177.47 253.43 1172.57C251.36 1164.96 246.722 1157.61 241.809 1151.46C237.206 1145.7 230.948 1141.33 225.336 1136.54Z" fill="#394933"/>
<path d="M1131.47 834.149C1134.21 832.281 1132.87 832.443 1135.5 832.857C1140.27 835.637 1151.72 836.873 1157.44 838.972C1163.74 840.973 1169.86 843.338 1175.96 845.957C1224.62 866.878 1255.71 908.516 1272.11 957.841C1300.41 1042.89 1274.95 1156.57 1180.76 1186.56C1133.73 1201.53 1094.39 1183.3 1057.03 1155.1C1084.62 1189.17 1123.03 1239.12 1169.05 1246.32C1181.57 1248.27 1193.5 1244.27 1197.52 1231.19L1198.4 1230.51C1203.6 1236.47 1195.58 1246.84 1190.71 1250.47C1181.14 1257.62 1169.42 1259.25 1157.86 1257.48C1131.37 1253.73 1108.49 1231.1 1093.75 1209.89C1071.42 1177.73 1044.88 1141.91 1012.33 1118.78C1025.85 1133.28 1034.2 1146.23 1038.69 1165.88C1046.11 1198.36 1033.4 1233 1009.22 1255.42C989.445 1273.48 963.231 1282.82 936.49 1281.35C897.963 1279.56 861.822 1251.52 863.106 1210.67C863.598 1195.33 873.7 1175.56 891.279 1175.43C898.278 1175.37 907.265 1183.74 899.956 1190.24C899.809 1190.36 898.25 1190.95 898.005 1191.04C893.687 1189.04 893.947 1181.69 886.316 1185.08C866.876 1193.69 867.192 1220.49 874.416 1236.68C890.865 1273.5 935.627 1284.53 970.75 1269.27C991.916 1259.98 1008.55 1242.68 1017 1221.16C1026.15 1198.08 1025.59 1172.27 1015.42 1149.6C992.036 1097.3 931.548 1079.22 878.671 1088.71C817.846 1099.65 778.363 1146.63 743.114 1193C740.531 1196.41 719.399 1219.36 718.88 1221.14C716.247 1223.86 712.765 1224.51 711.045 1227.31C711.073 1229.19 710.743 1228.43 711.578 1229.89C707.647 1233.8 683.679 1246.63 677.831 1249.33C646.563 1263.73 608.54 1267.96 575.997 1255.52C534.328 1240.05 514.514 1200.6 505.814 1159.45C503.973 1150.75 499.825 1129.98 496.112 1122.24C499.269 1141.66 499.201 1156.42 494.994 1175.66C483.987 1225.98 433.705 1264.91 381.34 1251.95C360.617 1246.74 342.774 1233.59 331.659 1215.35C320.9 1197.8 317.712 1176.65 322.82 1156.72C328.273 1135.83 346.011 1113.52 370.322 1118.32C385.775 1121.37 383.811 1143.47 372.119 1137.86C369.435 1134.65 372.918 1128.4 367.41 1126.34C359.982 1123.55 351.782 1126.32 345.83 1131.16C324.281 1148.69 322.777 1181.5 333.71 1205.02C342.126 1223.09 357.451 1237.01 376.238 1243.65C396.645 1250.96 420.834 1248.96 440.228 1239.51C462.071 1228.71 478.752 1209.7 486.628 1186.64L484.88 1185.89C475.558 1201.73 463.869 1210.76 446.9 1217.03L446.433 1215.61C475.485 1205.67 492.368 1168.61 491.437 1139.49C488.374 1043.52 388.251 991.089 301.314 1011.78C277.109 1017.54 255.083 1024.98 233.6 1037.84L231.984 1037C236.131 1034.96 240.405 1032.38 244.493 1030.14C299.775 999.795 367.276 991.876 424.061 1023.8C439.988 1032.72 454.159 1044.47 465.883 1058.46C477.385 1072.12 486.438 1087.67 492.644 1104.41C509.304 1149.22 508.792 1197.16 547.283 1232.5C575.723 1258.62 618.292 1263.53 646.443 1233.3C660.33 1218.38 668.192 1187.48 650.038 1170.99C632.283 1158.97 614.634 1167.74 619.099 1191L618.376 1191.41C608.393 1186.33 609.565 1173.15 615.076 1165.18C626.077 1148.69 650.494 1149.39 662.745 1163.91C693.129 1199.93 651.624 1253.32 612.296 1257.89C664.528 1261.01 706.39 1231.33 737.687 1192.41C763.972 1159.73 784.878 1129.17 821.061 1106C847.788 1088.61 878.944 1079.25 910.824 1079.04C1021.79 1079.02 1038.53 1166.13 1123.12 1184.26C1152.66 1190.59 1184 1185.7 1209.38 1169.06C1244.76 1145.85 1266.01 1108.87 1274.45 1067.93C1285.44 1012.75 1274.39 955.461 1243.67 908.319C1224.8 879.873 1197.27 856.024 1165.33 843.254C1154.28 838.831 1143.07 836.494 1131.47 834.149Z" fill="#7F8260"/>
<path d="M484.875 1185.89C486.858 1180.74 489.562 1172.97 491.742 1168.19C492.262 1171.95 488.343 1183.15 486.622 1186.63L484.875 1185.89Z" fill="#394933"/>
<path d="M1025.62 1153L1026.25 1152.96C1027.91 1155.19 1028.84 1160.34 1029.58 1163.11C1033.98 1179.61 1032.9 1194.38 1028.13 1210.63L1027.86 1210.57C1027.1 1209.32 1028.59 1203.69 1029.01 1201.95C1033.07 1184.75 1029.96 1169.7 1025.62 1153Z" fill="#394933"/>
<path d="M769.508 541.846C798.979 485.675 860.127 433.139 920.846 414.206C964.941 400.457 1010.42 402.11 1051.74 423.7C1096.05 446.849 1127.9 488.379 1142.61 535.774C1161.76 597.469 1150.79 663.363 1121.05 719.736C1115.15 731.095 1108.78 742.202 1101.97 753.034C1132.09 722.453 1155.8 670.545 1196.66 652.474C1197.72 653.962 1198.72 655.233 1199.55 656.876C1164.93 673.992 1139.08 713.46 1115.11 743.423C1101.45 760.469 1087.24 777.079 1072.52 793.219C1057.05 809.899 1041.11 826.144 1024.73 841.933C1017.89 848.624 1009.13 856.494 1002.83 863.24C1040.17 841.526 1064.7 828.363 1110.94 827.176C1126.02 826.79 1139.35 828.988 1154.22 825.814C1170.27 822.396 1180.02 808.011 1194.28 805.568C1210.92 802.71 1217.51 809.998 1235.44 803.132C1206.3 851.334 1184.04 834.464 1135.5 832.856C1132.87 832.442 1134.21 832.28 1131.46 834.148C1068.07 828.356 1009.22 854.816 966.486 901.164C964.274 902.905 964.036 902.456 963.6 904.583L964.232 905.391C950.704 916.82 945.537 922.773 934.03 935.515C936.277 921.243 1014.81 845.577 1030.49 829.381C1039.21 820.254 1047.62 810.84 1055.73 801.166C1058.87 799.818 1068.9 791.12 1070.03 787.785C1080.72 777.269 1094.12 757.359 1101.96 744.652C1138.62 685.238 1157.84 616.291 1140.14 547.004C1130.34 508.653 1110.83 473.442 1079.79 447.855C1069.95 439.75 1060.91 434.486 1050.06 427.975C1055.24 432.85 1061.36 438.342 1065.75 443.889C1079.75 461.6 1086.65 483.411 1080.78 505.65C1072.85 535.729 1038.14 553.926 1010.83 535.401C999.018 527.386 991.591 514.423 993.634 499.881C994.666 492.439 1000.41 482.83 1009.15 485.111C1011.53 485.722 1011.98 487.135 1012.92 489.051C1012.41 496.887 1003.95 491.541 1000.58 497.802C994.23 509.637 1004.61 525.829 1014.06 531.593C1034.58 544.107 1058.36 537.492 1070.38 517.391C1078.55 503.721 1078.66 488.359 1075.12 473.293L1073.31 473.029C1076.03 493.542 1069.43 509.426 1048.71 516.509C1053.64 513.192 1059.81 509.05 1062.42 503.788C1085.57 457.176 1036.36 417.627 995.396 411.637C944.238 404.158 894.155 424.409 854.588 452.486C828.802 470.462 806.154 492.56 787.55 517.894C781.829 525.722 775.51 536.998 770.722 543.255L769.508 541.846Z" fill="#797F5C"/>
<path d="M1073.31 473.029C1072.56 470.613 1069 460.587 1068.95 458.985C1072.11 463.719 1073.54 467.934 1075.12 473.293L1073.31 473.029Z" fill="#394933"/>
<path d="M1180.65 824.495L1181.05 824.565L1181.39 825.239C1178.59 826.777 1174.7 827.268 1171.47 827.907L1170.49 827.788L1170.17 827.114C1172.66 825.822 1177.71 825.078 1180.65 824.495Z" fill="#556244"/>
<path d="M176.721 -14.1929C143.562 -36.4875 101.569 -49.4043 61.6766 -41.4905C30.9084 -35.5313 3.77179 -17.5858 -13.7581 8.39241C-45.2291 55.5504 -42.9882 121.272 7.65125 154.004C25.9288 165.818 60.1504 173.779 75.7012 153.216C78.9664 148.898 76.3731 143.622 78.3332 142.145C80.3529 142.624 80.8409 142.704 82.0687 144.683C91.9176 160.231 81.6419 177.155 67.3989 185.122C53.215 193.056 34.8637 193.305 19.6568 188.278C-38.705 168.985 -58.7225 103.115 -41.6557 48.945C-30.6365 13.2905 -5.71134 -16.4162 27.486 -33.4624C118.162 -80.3678 210.067 -19.9264 251.784 61.9699C261.373 80.7936 274.532 104.267 287.03 120.978C334.913 185.004 410.199 219.573 487.33 233.21C494.114 234.409 501.043 235.368 507.892 236.248C520.548 239.018 532.307 241.778 545.319 242.713C548.755 242.96 558.49 242.786 560.876 243.637C554.813 246.699 469.632 236.156 455.956 235.279L458.483 233.285C460.215 233.283 461.105 233.168 462.833 232.952C462.119 232.439 416.024 218.597 409.123 215.996C358.278 196.832 312.938 166.235 280.604 121.984C267.812 104.48 257.162 85.3716 245.548 67.0716L247.386 66.0936C245.075 63.2911 243.094 60.0393 241.101 56.9805L242.515 56.3732C230.048 35.9285 208.898 6.16344 187.827 -5.36895C180.165 -7.421 173.447 -9.80864 165.418 -11.7764L165.636 -12.5297C169.942 -13.8959 174.29 -13.342 176.721 -14.1929Z" fill="#868866"/>
<path d="M242.515 56.373C245.126 60.2034 245.837 61.9128 247.717 66.123L247.564 66.5582L247.386 66.0935C245.075 63.2909 243.094 60.0391 241.102 56.9803L242.515 56.373Z" fill="#394933"/>
<path d="M60.6081 176.367C22.5534 188.058 -11.0082 165.182 -28.873 131.732C-31.8686 126.122 -39.0196 108.312 -38.6503 102.326C-37.242 103.743 -36.0556 109.606 -35.3732 111.884C-23.454 151.651 16.7707 189.109 60.6699 175.182L60.6081 176.367Z" fill="#082E1E"/>
<path d="M60.6633 175.182C63.0025 173.685 69.5413 169.009 71.4305 168.618C68.5964 172.285 65.0441 174.891 60.6016 176.368L60.6633 175.182Z" fill="#7F8260"/>
<path d="M1130.17 221.459C1143.21 218.528 1160.12 218.682 1173.13 221.046C1228.43 231.099 1268.51 279.281 1268.93 335.404C1269.17 367.992 1258.3 397.19 1240.62 424.193C1216.93 460.376 1177.27 512.785 1198.5 557.917C1197.59 559.907 1197.36 560.824 1195.7 562.281L1194.9 562.456C1193.84 560.545 1192.87 558.585 1192.01 556.581C1187.02 545.068 1186.03 534.208 1186.76 521.784C1189.76 470.468 1235.46 433.14 1252.38 390.119L1251.05 388.74C1236.18 411.998 1210.81 428.71 1183.54 432.798C1146.73 438.317 1105.79 417.495 1100.19 378.25C1096.98 355.714 1110.05 331.338 1134.4 329.178C1142.6 328.025 1153.29 333.144 1154.04 342.193C1154.38 346.372 1151.7 351.164 1146.89 350.876C1144.36 349.2 1145.07 350.291 1144.17 347.871C1144.86 345.378 1145.18 344.79 1144.86 342.165C1142.15 337.966 1136.81 336.137 1132.02 337.673C1113.11 343.738 1109.28 366.755 1114.19 383.535C1123.87 416.6 1162.46 427.94 1192.81 418.204C1224.08 408.395 1236.86 390.039 1251.55 363.289L1250.44 361.237C1241.9 374.834 1236.65 379.853 1222.28 386.533L1221.48 385.234C1227.98 381.651 1233.93 376.204 1238.4 370.257C1268.29 330.521 1251.75 270.679 1213.68 242.536C1189.17 224.417 1160.67 218.641 1130.64 223.34L1130.17 221.459Z" fill="#7F8260"/>
<path d="M1250.44 361.237C1255.59 351.046 1259.87 341.465 1259.8 329.923C1259.79 327.017 1259.11 322.723 1260.54 320.491C1261.4 321.592 1260.81 336.737 1260.48 339.048C1259.31 346.966 1255.46 356.377 1251.55 363.289L1250.44 361.237Z" fill="#394933"/>
<path d="M1256.14 379.926C1255.47 383.614 1254.04 386.767 1252.38 390.119L1251.05 388.741L1256.14 379.926Z" fill="#394933"/>
<path d="M988.102 886.098C1027.86 861.449 1070.72 846.854 1117.85 858.066C1158.6 868.091 1193.77 893.764 1215.74 929.526C1249.25 984.376 1245.89 1067.99 1186.92 1103.93C1166.23 1116.79 1141.26 1120.86 1117.56 1115.23C1088.56 1108.16 1063.98 1086.4 1058.18 1056.53C1053.9 1034.5 1061.76 1008.19 1086.32 1002.97L1087.3 1003.28C1092.19 1004.83 1098.88 1008.53 1098.07 1014.61C1096.82 1017.04 1096.39 1017.13 1094.13 1018.54C1090.18 1017.55 1087.77 1006.67 1078.31 1012.89C1058.25 1026.06 1062.59 1057.25 1073.72 1074.5C1084.17 1090.71 1098.69 1100.23 1116.72 1104.31C1138.37 1109.21 1161.08 1105.25 1179.81 1093.32C1198.14 1081.49 1211.86 1062.65 1219.42 1042.33C1234.21 1002.57 1224.85 956.239 1201.94 921.432C1197.29 914.355 1191.92 907.784 1185.91 901.824C1180.52 894.438 1162 880.762 1153.29 879.225C1101.4 844.888 1039.3 856.037 988.93 887.453L988.102 886.098Z" fill="#7F8260"/>
<path d="M876.76 156.463C897.94 143.323 918.938 133.224 943.748 129.324C981.406 123.406 1020.8 137.825 1041.26 170.939C1057.78 197.677 1058.29 227.129 1051.01 256.9C1049.81 261.598 1048.51 266.268 1047.11 270.906C1049.69 266.733 1052.56 261.84 1055.27 257.825L1056.17 258.01C1056.73 259.486 1056.66 259.393 1057.99 260.258C1059.41 259.143 1058.83 259.846 1059.31 257.772C1107.21 209.51 1183.13 188.801 1240.94 232.214L1239.52 233.247C1237.18 231.443 1235.85 230.704 1233.28 229.342C1199.65 211.503 1165.17 208.954 1129.07 219.898L1130.17 221.459L1130.64 223.34C1125.89 224.363 1117.36 226.469 1112.83 226.891C1046.8 253.896 1048.69 292.083 1007.66 341.267C982.985 370.845 959.537 387.044 927.286 406.697L925.222 406.228C933.225 402.106 942.948 394.862 950.284 389.382C981.602 365.979 1008.6 337.285 1027.63 302.881C1041.96 276.97 1054.68 242.937 1046.23 212.715C1042.18 198.223 1032.05 185.79 1016.94 180.809C1014.21 179.908 1005.65 180.628 1002.22 178.77C997.911 176.441 996.977 173.416 992.308 170.892C990.49 170.961 989.29 171.203 987.675 170.399C996.317 153.047 1016.24 159.294 1028.22 169.285L1029.64 168.069C1018.64 153.119 1000.8 141.378 982.859 136.908C938.897 125.952 902.44 144.431 866.117 165.829C866.075 164.872 866.215 164.335 866.356 163.378C869.037 160.037 871.895 157.806 875.208 155.187L876.76 156.463Z" fill="#838663"/>
<path d="M1112.82 226.889C1116.76 223.584 1124.08 221.007 1129.06 219.896L1130.16 221.458L1130.63 223.339C1125.88 224.361 1117.35 226.468 1112.82 226.889Z" fill="#556244"/>
<path d="M1029.64 168.069C1033.6 172.978 1035.02 175.383 1038.17 180.918L1037.93 181.126C1034.9 177.576 1031.11 172.249 1028.22 169.285L1029.64 168.069Z" fill="#394933"/>
<path d="M875.204 155.188L876.756 156.463C872.993 158.716 870.079 161.118 866.352 163.378C869.033 160.037 871.891 157.807 875.204 155.188Z" fill="#394933"/>
<path d="M1010.36 -27.1352C1042.53 -51.4788 1081.07 -64.7476 1121.79 -59.0525C1156.61 -54.1811 1188.32 -36.7847 1210.43 -8.59154C1235.03 22.5256 1241.29 74.8647 1207.27 101.804C1200.38 107.266 1188.59 111.753 1179.88 110.16C1168.11 108.005 1163.83 104.364 1159.54 93.4715C1164.44 98.1401 1167.85 101.234 1175.13 100.863C1186.3 100.293 1196.14 90.3811 1199.85 80.474C1198.46 79.3992 1198.92 79.9116 1196.26 80.0864C1197.39 75.8672 1204.58 67.4687 1206.91 62.7257C1216.51 43.1782 1211.28 15.4793 1200.67 -2.554C1185.51 -28.3125 1164.81 -40.9942 1136.63 -48.6385C1100.67 -58.0991 1062.43 -53.0205 1030.19 -34.5017C1023.94 -30.8862 1018.41 -26.9828 1012.61 -22.7264L1010.36 -27.1352Z" fill="#808562"/>
<path d="M1218.03 23.2334C1222.1 28.5464 1222.28 45.0717 1221.68 51.6547C1220.5 64.5835 1215.16 81.2758 1205.03 89.8674L1204.75 89.4672C1207.33 84.8555 1210.44 80.7303 1213.36 75.3703C1221.14 61.1084 1222.56 38.6094 1218.03 23.2334Z" fill="#394933"/>
<path d="M254.721 436.807C262.705 444.063 268.414 441.669 269.833 442.888L269.257 444.145C266.687 445.748 258.866 447.344 255.959 446.706C230.388 441.099 226.253 405.083 229.066 385.167C235.397 340.345 263.575 301.423 298.016 274.1C344.211 237.451 401.124 226.68 458.486 233.284L455.959 235.278C403.77 234.185 334.135 242.29 316.485 302.122C313.625 311.819 315.678 322.855 317.293 332.617C321.4 337.449 323.223 340.178 329.778 341.107L330.118 342.042C328.199 343.635 321.288 344.129 319.401 343.533C288.227 333.694 294.973 295.19 312.58 276C320.067 267.841 323.037 265.202 330.334 259.555C281.458 281.382 223.296 350.314 240.986 408.615C243.745 417.704 252.882 424.311 254.576 435.778L254.721 436.807Z" fill="#7F8260"/>
<path d="M232.89 393.814C234.837 395.576 236.211 412.369 237.897 416.593C240.332 422.694 243.82 427.285 247.242 432.783C236.82 427.953 232.508 404.376 232.89 393.814Z" fill="#556244"/>
<path d="M924.088 61.9715C927.521 29.4923 912.056 -10.507 876.757 -18.7679C875.88 -18.9722 866.339 -21.3036 866.276 -21.2735C857.816 -17.1988 848.332 -15.0281 840.146 -10.6032C837.429 -9.12679 836.116 -2.46024 835.014 -1.21131C831.539 -5.29226 832.143 -12.969 834.066 -17.6601C842.477 -38.215 868.606 -41.1314 886.803 -33.1625C904.909 -25.2323 917.237 -9.19419 924.229 8.88752C933.103 31.5795 932.295 56.9308 925.415 80.0447C923.063 87.9462 919.729 95.4495 916.331 102.992C950.029 57.3598 962.841 9.71241 1010.36 -27.1348L1012.62 -22.726C970.1 12.5381 958.874 46.0008 929.965 90.2425C914.485 114.084 896.091 135.9 875.206 155.187C871.892 157.807 869.035 160.037 866.353 163.378C866.212 164.335 866.072 164.872 866.114 165.829C818.551 198.835 792.372 212.557 736.055 225.716L733.422 224.303C794.036 212.225 866.676 167.157 903.175 116.935C910.504 106.85 916.507 92.4926 920.305 80.6302C922.537 75.0694 924.812 67.9437 924.088 61.9715Z" fill="#858864"/>
<path d="M660.333 -46.6024C624.929 -61.8091 583.256 -66.8549 546.645 -52.8784C507.479 -37.9257 477.29 6.2444 493.458 48.1371C499.718 64.3577 519.73 81.0677 538.64 73.4653C544.427 71.1387 546.466 68.1165 545.9 61.9434C547.036 60.3007 546.3 60.9016 548.355 60.3856C552.937 64.409 549.678 73.7208 545.934 77.5427C532.089 91.6733 507.692 84.3062 495.407 71.5635C483.921 59.8977 477.892 43.5823 478.414 27.2648C480.387 -34.516 542.387 -67.5657 597.353 -66.4338C627.063 -65.6621 656.134 -57.5915 681.99 -42.9335C680.088 -41.1044 679.288 -40.7656 677.048 -39.4955C673.538 -41.1768 669.241 -42.9101 665.612 -44.4704C664.545 -44.7678 661.512 -46.1096 660.333 -46.6024Z" fill="#7F8260"/>
<path d="M19.4068 601.836C21.1289 603.486 23.1837 605.894 25.2302 606.659C23.0068 603.135 20.5328 599.934 18.2442 596.501C0.670071 570.112 -11.1136 537.195 -9.95247 505.204C-8.90363 476.32 1.16009 438.454 27.0492 421.866C36.6699 415.701 51.0504 413.108 62.1932 415.529L63.1389 416.498C59.3198 423.102 57.9508 421.196 55.2901 430.719C51.2098 445.323 37.8276 451.83 25.3902 457.865C3.56597 469.598 -5.61809 494.839 -4.75528 518.552C-3.69169 554.523 14.1724 586.89 35.7467 614.508C33.8035 615.112 34.4536 615.084 32.497 615.056C27.4514 612.065 21.2265 607.684 19.4068 601.836Z" fill="#8A8C69"/>
<path d="M25.1683 438.626L26.0051 438.952C26.2445 440.352 21.9242 444.037 20.4211 445.724C11.1612 456.111 4.61474 466.842 0.0220021 479.962L-0.812022 480.024L-1.25781 478.978C4.88573 461.787 12.3596 451.241 25.1683 438.626Z" fill="#556244"/>
<path d="M573.188 932.861C619.768 939.439 667.64 932.026 708.365 903.397C742.519 879.387 770.517 821.406 729.539 788.396C727.685 786.908 724.66 786.641 722.336 784.57C739.515 782.934 751.85 805.708 753.661 820.247C754.187 824.516 753.015 827.801 754.461 832.315C754.945 831.88 754.784 832.168 754.819 831.396C755.788 810.868 753.043 793.387 738.693 777.746C728.935 767.11 714.648 760.237 700.165 759.795C687.325 759.437 674.871 764.211 665.555 773.056C652.82 785.286 646.874 804.76 659.082 819.651C661.932 823.126 670.862 825.429 675.299 823.386C677.827 819.082 672.695 816.667 678.03 813.817C679.954 814.147 682.109 814.743 682.958 816.569C687.915 827.127 673.635 832.751 665.042 829.374C649.113 823.119 644.136 800.043 651.149 785.848C674.253 739.022 738.553 748.794 756.048 795.304C764.191 816.955 761.868 836.83 753.268 857.701C726.787 916.764 653.901 941.616 593.062 936.414C586.562 935.852 579.121 934.743 572.781 934.42L573.188 932.861Z" fill="#7B805D"/>
<path d="M1055.73 801.166C1078.07 769.497 1096.87 731.123 1077.64 692.813C1071.6 680.794 1064.66 673.022 1051.64 668.368C1045.37 666.121 1032.3 669.07 1026.54 672.517C1022.72 675.023 1022.79 676.378 1021.83 680.752L1021.57 681.995C1014.73 678.913 1016.69 669.568 1019.2 664.247C1026.32 647.595 1048.66 644.07 1063.59 651.624C1104.29 672.208 1099.34 726.778 1083.17 761.95C1078.92 771.196 1074.1 779.058 1070.03 787.785C1068.9 791.119 1058.87 799.818 1055.73 801.166Z" fill="#828562"/>
<path d="M1043.12 73.6592C1086.57 74.1941 1103.32 114.375 1102.57 152.613C1101.78 192.855 1078.94 223.125 1059.81 256.429C1059.65 256.877 1059.48 257.324 1059.31 257.772C1058.83 259.846 1059.41 259.143 1057.99 260.259C1056.67 259.393 1056.73 259.486 1056.18 258.01L1055.28 257.826C1057.28 253.682 1063.03 245.046 1065.67 240.515C1078.74 218.04 1094.53 192.48 1095.98 165.962C1096.8 150.992 1091.9 134.158 1079.22 125.317C1071.4 119.869 1062.8 115.506 1057.39 107.312C1048.59 93.9607 1054.36 85.8775 1043.12 73.6592Z" fill="#8A8C69"/>
<path d="M1075.12 100.532C1084.52 108.568 1091.54 122.898 1095.1 134.554C1093 133.433 1091.32 128.48 1090.26 126.027C1086.27 116.776 1080.78 108.827 1075.12 100.532Z" fill="#556244"/>
<path d="M-53.1797 1136.94C-45.709 1123.51 -33.3784 1115.02 -18.4032 1117.45C54.1679 1129.22 33.9906 1233.55 -9.0219 1267.64C-18.3394 1275.01 -25.8182 1279.32 -37.168 1278.19C-21.8418 1274.77 -10.7938 1265.21 -0.333466 1252.86C17.3277 1231.99 33.5757 1190.1 7.25276 1169.14C0.499151 1163.76 -9.4691 1160.81 -10.0314 1149.88C-10.1662 1147.27 -9.76184 1146.63 -8.1647 1144.77C2.95488 1140.41 15.0054 1153.5 18.7964 1163.22L20.4146 1162.91C16.0963 1151.46 13.6862 1145.4 4.98939 1136.25C-8.91869 1121.61 -33.8607 1117.25 -49.0641 1132.77L-53.1797 1136.94Z" fill="#757C5A"/>
<path d="M20.4229 1162.91C21.6395 1167.85 23.0689 1175.42 22.9123 1180.49C21.3236 1175.97 20.0691 1168.39 18.8047 1163.22L20.4229 1162.91Z" fill="#556244"/>
<path d="M5.28906 1154.86C7.30181 1155.58 10.0664 1157.01 12.0609 1157.96C14.0035 1160.97 14.8354 1161.97 15.9341 1165.39L13.7128 1165.32C9.886 1162.32 7.92381 1158.89 5.28906 1154.86Z" fill="#556244"/>
<path d="M101.073 65.6423C86.5305 47.3991 95.5313 25.8402 113.273 14.3837C126.577 5.79281 143.398 3.74145 158.821 5.48532C187.486 8.72593 225.778 32.7714 241.097 56.9805C243.089 60.0393 245.07 63.2912 247.381 66.0937L245.544 67.0716C241.413 61.496 236.959 56.2055 232.121 50.6755C206.835 21.7761 155.264 -1.84466 124.299 32.1593C119.101 37.8668 116.118 44.5839 109.286 49.6653C102.695 54.5655 101.42 57.8426 101.073 65.6423Z" fill="#91926E"/>
<path d="M9.69357 1030.09C75.1594 1080.97 159.162 1036.26 170.993 958.472C174.63 934.561 164.164 895.282 133.341 898.827C127.753 899.452 123.975 906.451 122.058 911.324L121.027 911.541C116.034 907.659 116.943 900.477 120.542 895.83C123.597 891.884 130.873 890.396 135.54 890.276C158.303 890.719 171.673 914.111 175.238 934.062C187.596 1016.61 89.4669 1090.56 16.1186 1043.14C12.0531 1040.51 8.15821 1037.42 4.42969 1034.24C6.10335 1032.49 7.73137 1031.47 9.69357 1030.09Z" fill="#787E5B"/>
<path d="M146.08 209.898C139.712 224.406 137.091 237.836 140.202 254.715C143.803 274.257 161.459 294.858 183.493 291.433C191.626 290.169 191.242 280.615 194.506 275.211C199.413 273 205.118 279.51 201.175 286.06C192.331 300.753 174.283 300.695 161.205 292.419C128.595 271.425 126.367 227.248 146 196.842C182.33 140.575 253.548 140.992 307.937 168.38C313.634 171.249 319.08 172.63 324.624 176.083L324.601 176.501C317.6 175.118 306.469 169.037 299.125 166.42C247.731 148.11 191.417 147.485 155.262 194.425C153.097 197.208 146.48 206.802 146.08 209.898Z" fill="#7F8360"/>
<path d="M330.03 -41.7176C353.747 -42.1059 379.829 -23.6593 365.152 3.13751C363.123 6.84146 353.082 11.2706 348.552 11.4602C346.672 10.5391 347.294 11.2348 346.529 9.39408C354.555 4.93754 354.42 3.70405 356.565 -5.14514C353.373 -14.3769 350.752 -22.621 341.984 -27.9242C319.92 -41.2714 296.004 -24.6758 284.946 -5.75591C269.479 20.7074 269.54 49.6047 276.303 78.198C282.28 102.704 293.071 121.813 307.215 142.244C288.233 125.829 273.659 85.5329 269.75 61.0564C262.969 18.5929 280.824 -36.4476 330.03 -41.7176Z" fill="#7F8260"/>
<path d="M739.451 14.7318C728.619 4.08052 720.636 -3.62225 706.097 -9.459C691.474 -15.3308 675.706 -17.0803 660.907 -10.5956C657.298 -9.02092 653.922 -6.96465 650.861 -4.48294C647.709 -1.90084 621.803 23.7306 621.228 25.3776C620.456 27.5714 619.803 29.8285 619.15 32.0582C609.012 22.8285 611.125 5.18623 619.115 -4.881C642.127 -33.8548 688.757 -25.7702 716.066 -7.88151C722.511 -3.66296 726.8 0.721264 732.669 5.08162L733.238 5.49934C736.18 7.58018 739.549 10.8482 739.451 14.7318Z" fill="#949571"/>
<path d="M1153.29 879.227C1161.99 880.764 1180.51 894.44 1185.91 901.825L1186.24 902.415C1189.83 908.649 1194.34 914.525 1197.98 920.879C1216.31 952.892 1222.07 998.714 1182.71 1016.66C1189.88 1007.45 1194.32 1000.68 1195.14 988.492C1196.32 970.934 1198.7 953.158 1193.34 935.986C1192.13 932.118 1190.99 925.751 1187.63 923.279C1187.16 925.849 1189.41 930.665 1189.66 933.592C1190.48 943.133 1189.59 959.21 1183.29 966.687L1182.21 967.059L1184.82 962.643C1190.11 953.706 1188.91 936.534 1186.36 926.762C1186.01 925.442 1185.62 924.129 1185.2 922.83C1183.15 915.016 1177.73 906.353 1173.37 899.649C1172.17 898.673 1168.11 893.639 1166.76 892.193C1162.41 887.497 1158.04 883.488 1153.29 879.227Z" fill="#737B58"/>
<path d="M1173.38 899.649L1175.31 898.596C1180.12 900.955 1188.37 914.286 1190.26 919.425C1188.52 922.402 1188.31 920.239 1185.2 922.83C1183.15 915.016 1177.73 906.353 1173.38 899.649Z" fill="#556244"/>
<path d="M681.997 -42.9336C723.986 -19.2903 757.55 16.5867 770.98 63.7173C782.873 105.446 775.157 156.674 753.942 194.141C748.459 203.825 740.259 214.787 733.134 223.309L733.428 224.302L736.061 225.715C733.527 226.015 730.992 226.291 728.458 226.546L726.927 225.666C728.409 221.552 735.717 214.736 738.336 210.468C742.141 204.27 745.567 196.538 748.269 189.79C749.266 190.364 748.642 190.079 750.221 190.456C751.232 188.023 751.555 187.593 753.31 185.605L753.759 186.149C755.55 184.477 755.627 183.065 756.715 180.621C764.051 164.52 768.755 147.346 770.643 129.755C775.333 88.2438 765.638 47.6533 739.466 14.7312C739.564 10.8475 736.194 7.57954 733.253 5.4987C718.833 -14.4167 698.425 -28.1051 677.055 -39.4956C679.294 -40.7657 680.094 -41.1045 681.997 -42.9336Z" fill="#7A7E5D"/>
<path d="M465.537 222.127C447.076 212.325 435.162 206.546 418.737 191.454C389.082 164.206 365.823 111.305 396.178 76.3178C412.096 60.4609 432.032 57.4498 449.375 73.4774C459.411 82.7527 457.39 102.637 444.373 101.301C445.774 100.129 448.599 98.8167 449.35 97.5116C455.323 87.3405 448.146 75.4024 438.484 70.8152C420.667 62.3564 401.019 74.1773 392.904 90.3874C384.776 106.624 385.826 125.894 391.389 142.614C403.063 177.705 433.98 204.534 466.233 220.648L465.537 222.127Z" fill="#808260"/>
<path d="M690.624 467.164C738.278 462.62 765.904 512.163 751.596 553.742C751.105 551.828 751.575 546.381 751.73 544.089C753.393 518.987 747.84 500.067 728.583 483.29C721.359 477.087 712.401 473.266 702.924 472.351C686.545 470.729 664.972 479.931 664.579 498.111C664.249 513.194 671.304 514.303 682.888 514.093L682.761 515.229C677.693 521.148 672.771 520.572 666.425 516.548C655.396 509.556 656.435 493.433 663.167 483.802C669.942 474.103 679.321 469.331 690.624 467.164Z" fill="#7F8260"/>
<path d="M564.962 916.047L565.904 915.738C576.723 912.108 588.004 901.185 595.698 892.29C597.158 890.605 596.4 884.237 596.183 881.612C616.984 876.571 618.051 929.477 560.85 922.541C555.612 923.06 538.974 920.182 535.781 916.335C538.593 915.422 549.58 917.612 553.929 917.451C558.765 917.268 560.074 917.009 564.962 916.047Z" fill="#747B58"/>
<path d="M560.85 922.542C555.612 923.061 538.974 920.183 535.781 916.336C538.593 915.423 549.58 917.613 553.929 917.452C558.765 917.269 560.074 917.01 564.962 916.048C568.241 917.403 568.844 917.698 572.415 917.606L572.682 918.842L568.037 920.127L572.195 920.906L572.331 921.362C570.011 921.615 562.271 922.135 560.85 922.542Z" fill="#556244"/>
<path d="M572.422 917.606C575.71 916.314 578.593 914.889 581.952 913.731L583.005 914.819L583.883 913.808L583.539 913.534L583.588 914.173C580.266 916.377 576.456 917.515 572.689 918.842L572.422 917.606Z" fill="#556244"/>
<path d="M260.666 173.05C277.734 170.893 297.516 175.357 313.994 179.716C311.188 179.869 305.802 179.206 302.731 179.04C289.594 178.332 280.417 179.401 269.293 186.414C245.33 207.047 245.378 191.629 227.359 197.198C237.145 180.827 241.105 176.411 260.666 173.05Z" fill="#6C7653"/>
<path d="M270.917 177.103C273.354 176.784 278.711 176.363 280.974 177.138C278.924 178.09 277.599 178.021 275.363 178.191C271.088 178.633 269.127 179.274 264.445 179.325C266.415 178.096 268.646 177.703 270.917 177.103Z" fill="#556244"/>
<path d="M873.659 475.658C892.488 473.937 922.844 478.213 923.665 502.545C923.89 509.249 914.539 521.199 907.588 513.105C907.827 511.451 910.867 509.873 912.819 508.291C917.017 498.366 909.098 489.051 900.463 484.991C882.645 476.613 860.945 480.644 843.134 486.926C828.665 492.907 815.186 501.04 803.153 511.048C798.541 514.83 792.63 521.014 788.102 524.007C808.552 499.181 841.723 480.35 873.659 475.658Z" fill="#6C7553"/>
<path d="M718.884 1221.14C742.353 1208.62 767.676 1197.83 795.926 1205.2C809.152 1208.65 835.85 1228.25 815.913 1244.89C813.954 1246.53 805.01 1247.23 803.55 1242.77C804.869 1240.24 820.005 1238.7 815.562 1227.94C804.42 1200.97 764.734 1206.21 743.132 1214.31C730.411 1219.08 722.317 1224.45 711.583 1229.89C710.747 1228.43 711.077 1229.19 711.049 1227.31C712.769 1224.51 716.251 1223.86 718.884 1221.14Z" fill="#7F835F"/>
<path d="M920.309 80.63C920.056 70.9966 921.228 69.0569 919.298 58.4603C918.526 41.0744 892.494 34.5096 889.531 20.4106C887.25 9.57179 904.822 14.8104 909.771 19.3617C922.92 31.4613 922.948 45.877 924.093 61.9712C924.816 67.9435 922.541 75.0692 920.309 80.63Z" fill="#556244"/>
<path d="M1205.24 568.25C1213.3 576.204 1220.79 582.124 1232.95 582.184C1240.57 582.26 1247.91 579.309 1253.35 573.98C1257.83 569.527 1262.65 559.956 1256.57 554.659C1254.11 552.517 1251.16 552.669 1249.51 549.737C1252.41 538.073 1265.82 547.238 1267.22 553.794C1271.01 571.48 1258.51 584.045 1242.37 586.99C1230.86 589.033 1219.02 586.326 1209.55 579.488C1206.53 577.331 1204.91 575.759 1202.34 573.03C1203.22 571.056 1203.61 569.649 1205.24 568.25Z" fill="#7F8260"/>
<path d="M506.566 174.723L507.617 175.644C507.29 177.195 506.852 178.73 506.566 180.288C506.185 182.273 506.33 184.324 506.988 186.235C508.96 191.812 521.902 209.723 525.986 215.367C529.1 219.671 534.568 223.314 537.589 228.062C523.539 223.057 519.558 215.743 510.146 206.89C511.045 210.09 512.803 211.924 514.826 214.598L515.556 215.006L514.797 215.863C512.918 215.794 513.012 215.772 511.219 216.322L511.42 217.352C514.231 219.765 515.738 221.039 518.98 222.818C521.103 223.983 529.468 227.809 530.377 228.826L529.856 229.22C520.649 227.057 503.55 213.807 498.957 204.947C492.582 192.644 493.684 181.406 506.566 174.723Z" fill="#556244"/>
<path d="M615.75 124.662C630.921 86.0085 677.094 75.9603 712.231 93.6102C720.291 97.6603 725.647 102.235 732.345 108.124L728.399 109.864C695.214 79.1896 635.597 80.6786 619.197 127.182L617.8 128.131L616.67 127.609L615.75 124.662Z" fill="#848764"/>
<path d="M1196.66 652.475C1210.21 646.43 1224.72 644.317 1238.87 649.582C1254.36 655.346 1267.2 673.381 1259.52 689.739C1255.46 698.402 1248.17 703.007 1238.74 701.042C1244.61 699.968 1246.35 701.175 1251.11 695.769C1255.19 691.108 1257.19 684.986 1256.65 678.815C1256.04 671.247 1251.61 663.111 1245.41 658.723C1230.14 647.918 1215.37 650.993 1199.56 656.876C1198.73 655.234 1197.73 653.963 1196.66 652.475Z" fill="#7F8260"/>
<path d="M732.344 108.125C736.121 110.961 739.638 115.578 742.369 119.447C756.508 139.531 759.288 162.216 753.307 185.605C751.552 187.594 751.229 188.024 750.218 190.457C748.638 190.08 749.263 190.365 748.266 189.791C757.245 156.996 751.123 134.577 728.398 109.865L732.344 108.125Z" fill="#7F8260"/>
<path d="M615.742 124.662L616.662 127.609L617.792 128.131L619.189 127.182C617.561 134.742 617.174 139.454 619.26 147.267C621.569 155.956 630.998 167.146 640.988 164.106L645.698 162.65C638.903 172.024 622.917 163.627 618.529 155.333C612.766 144.45 612.913 136.063 615.742 124.662Z" fill="#7F8260"/>
<path d="M242.901 1051.3C244.175 1051.2 243.546 1051.13 244.784 1051.51C243.013 1052.92 224.053 1057.35 220.206 1058.67C201.87 1064.99 184.293 1072.23 167.808 1082.58C166.686 1083.13 166.749 1082.96 165.43 1083.13L165.566 1082.36C189.924 1066.2 214.313 1056.84 242.901 1051.3Z" fill="#556244"/>
<path d="M146.076 209.898C146.476 206.802 153.094 197.208 155.258 194.425C155.594 199.286 153.238 201.629 151.31 206.352C144.019 224.219 145.399 236.97 153.777 253.645C135.924 235.243 149.736 216.155 146.076 209.898Z" fill="#556244"/>
<path d="M1198.49 557.916C1200.82 561.824 1202.46 564.646 1205.24 568.25C1203.61 569.649 1203.22 571.056 1202.34 573.03C1199.73 569.887 1196.67 566.084 1194.89 562.455L1195.69 562.28C1197.35 560.823 1197.59 559.906 1198.49 557.916Z" fill="#556244"/>
<path d="M966.495 901.164C968.826 900.259 984.467 888.605 988.104 886.099L988.932 887.454C980.585 893.266 972.35 899.248 964.241 905.391L963.609 904.583C964.045 902.456 964.283 902.905 966.495 901.164Z" fill="#556244"/>
<path d="M403.314 988.708C406.952 989.515 418.474 993.37 421.554 995.286L421.517 996.529C413.994 994.022 406.446 991.586 398.875 989.228L403.314 988.708Z" fill="#394933"/>
<path d="M233.602 1037.84C231.811 1039.18 216.097 1049.01 214.312 1049.79L214.289 1049.31C216.128 1046.3 228.43 1038.89 231.987 1036.99L233.602 1037.84Z" fill="#394933"/>
<path d="M572.774 934.42C568.683 933.929 562.118 933.388 558.758 931.289L559.144 930.699C563.141 930.201 569.175 931.844 573.181 932.862L572.774 934.42Z" fill="#556244"/>
<path d="M446.902 1217.03C441.848 1219.11 435.901 1219.31 430.555 1218.43C432.023 1217.77 443.535 1216.23 446.434 1215.61L446.902 1217.03Z" fill="#394933"/>
<path d="M1222.27 386.533C1217.51 388.788 1213.51 389.679 1208.3 390.302C1211.32 388.504 1217.9 386.466 1221.47 385.234L1222.27 386.533Z" fill="#394933"/>
<path d="M763.461 552.732C765.293 548.98 767.413 545.458 769.513 541.846L770.727 543.255C769.288 545.503 765.49 550.8 765.314 553.14L763.461 552.732Z" fill="#394933"/>
<path d="M1240.94 232.214C1244.73 234.808 1248.3 238.282 1251.37 241.691C1246.85 238.888 1243.74 236.501 1239.52 233.247L1240.94 232.214Z" fill="#556244"/>
<path d="M927.277 406.696C926.407 407.298 925.522 407.888 924.63 408.465C923.023 409.487 921.773 410.331 920.039 409.922C921.064 408.029 923.191 407.293 925.213 406.227L927.277 406.696Z" fill="#394933"/>
<path d="M466.235 220.648C469.112 221.983 469.4 221.572 471.004 223.78C469.124 224.431 467.247 223.16 465.539 222.128L466.235 220.648Z" fill="#556244"/>
</g>
<defs>
<clipPath id="clip0_7114_26384">
<rect width="1254" height="1254" fill="white"/>
</clipPath>
</defs>
</svg>
